<svg height="6190" width="720" xmlns="http://www.w3.org/2000/svg">
<rect height="6190" fill="#555" width="720"></rect>
<text fill="#7f7" font-family="Courier New" font-size="12" xml:space="preserve">
<tspan x="10" y="26"></tspan>

<tspan x="10" y="42">\x1b[35m[MODE_BUILD=npmTestPublished]\x1b[0m - 2020-09-04T18:56:36.701Z - npm-testing /tmp/npmTe\</tspan>
<tspan x="10" y="58">stPublished/node_modules/jslint-lite</tspan>

<tspan x="10" y="74"></tspan>

<tspan x="10" y="90"></tspan>

<tspan x="10" y="106">istanbul - covering $ /home/travis/.nvm/versions/node/v14.9.0/bin/node /tmp/npmTestPublished/nod\</tspan>
<tspan x="10" y="122">e_modules/jslint-lite/test.js</tspan>

<tspan x="10" y="138">&gt; jslint - 3ms - /tmp/npmTestPublished/node_modules/jslint-lite/README.md</tspan>

<tspan x="10" y="154">jslint - 11ms - /tmp/npmTestPublished/node_modules/jslint-lite/npm_scripts.sh</tspan>

<tspan x="10" y="170">jslint - 21ms - /tmp/npmTestPublished/node_modules/jslint-lite/package.json</tspan>

<tspan x="10" y="186">jslint - 78ms - /tmp/npmTestPublished/node_modules/jslint-lite/test.js</tspan>

<tspan x="10" y="202">jslint - 299ms - /tmp/npmTestPublished/node_modules/jslint-lite/lib.jslint.js</tspan>

<tspan x="10" y="218">http-server listening on port 57574</tspan>

<tspan x="10" y="234">testRunDefault - 949 ms - [node test-case 1 of 9 passed] - testCase_jslint0_coverage</tspan>

<tspan x="10" y="250">testRunDefault - 987 ms - [node test-case 2 of 9 passed] - testCase_jslint0_err</tspan>

<tspan x="10" y="266">testRunDefault - 993 ms - [node test-case 3 of 9 passed] - testCase_jslintAndPrint_coverage</tspan>

<tspan x="10" y="282">testRunDefault - 1039 ms - [node test-case 4 of 9 passed] - testCase_jslintAutofix_coverage</tspan>

<tspan x="10" y="298">testRunDefault - 1039 ms - [node test-case 5 of 9 passed] - testCase_nop_default</tspan>

<tspan x="10" y="314">--- /tmp/npmTestPublished/node_modules/jslint-lite/package.json.autofix.old	2020-09-04 18:56:39.\</tspan>
<tspan x="10" y="330">806892792 +0000</tspan>

<tspan x="10" y="346">+++ /tmp/npmTestPublished/node_modules/jslint-lite/package.json	2020-09-04 18:56:39.806892792 +0\</tspan>
<tspan x="10" y="362">000</tspan>

<tspan x="10" y="378">@@ -1,73 +1,73 @@</tspan>

<tspan x="10" y="394"> {</tspan>

<tspan x="10" y="410">-  "!!jslint_utility2": true,</tspan>

<tspan x="10" y="426">-  "_from": "jslint-lite",</tspan>

<tspan x="10" y="442">-  "_id": "jslint-lite@2020.8.19",</tspan>

<tspan x="10" y="458">-  "_inBundle": false,</tspan>

<tspan x="10" y="474">-  "_integrity": "sha512-AZezaqbOInsNZ+nDQzhqYeRsDof6mPR6iT+ddhjKCK5oSF9tF4rz3EgeXcRSaAynDl73W/u\</tspan>
<tspan x="10" y="490">DP/dJKXKb3njmpQ==",</tspan>

<tspan x="10" y="506">-  "_location": "/jslint-lite",</tspan>

<tspan x="10" y="522">-  "_phantomChildren": {},</tspan>

<tspan x="10" y="538">-  "_requested": {</tspan>

<tspan x="10" y="554">-    "type": "tag",</tspan>

<tspan x="10" y="570">-    "registry": true,</tspan>

<tspan x="10" y="586">-    "raw": "jslint-lite",</tspan>

<tspan x="10" y="602">+    "!!jslint_utility2": true,</tspan>

<tspan x="10" y="618">+    "_from": "jslint-lite",</tspan>

<tspan x="10" y="634">+    "_id": "jslint-lite@2020.8.19",</tspan>

<tspan x="10" y="650">+    "_inBundle": false,</tspan>

<tspan x="10" y="666">+    "_integrity": "sha512-AZezaqbOInsNZ+nDQzhqYeRsDof6mPR6iT+ddhjKCK5oSF9tF4rz3EgeXcRSaAynDl73W\</tspan>
<tspan x="10" y="682">/uDP/dJKXKb3njmpQ==",</tspan>

<tspan x="10" y="698">+    "_location": "/jslint-lite",</tspan>

<tspan x="10" y="714">+    "_phantomChildren": {},</tspan>

<tspan x="10" y="730">+    "_requested": {</tspan>

<tspan x="10" y="746">+        "escapedName": "jslint-lite",</tspan>

<tspan x="10" y="762">+        "fetchSpec": "latest",</tspan>

<tspan x="10" y="778">+        "name": "jslint-lite",</tspan>

<tspan x="10" y="794">+        "raw": "jslint-lite",</tspan>

<tspan x="10" y="810">+        "rawSpec": "",</tspan>

<tspan x="10" y="826">+        "registry": true,</tspan>

<tspan x="10" y="842">+        "saveSpec": null,</tspan>

<tspan x="10" y="858">+        "type": "tag"</tspan>

<tspan x="10" y="874">+    },</tspan>

<tspan x="10" y="890">+    "_requiredBy_": [</tspan>

<tspan x="10" y="906">+        "#USER",</tspan>

<tspan x="10" y="922">+        "/"</tspan>

<tspan x="10" y="938">+    ],</tspan>

<tspan x="10" y="954">+    "_resolved": "https://registry.npmjs.org/jslint-lite/-/jslint-lite-2020.8.19.tgz",</tspan>

<tspan x="10" y="970">+    "_shasum": "045e53898573cd9815615fe288d512552293cf6a",</tspan>

<tspan x="10" y="986">+    "_spec": "jslint-lite",</tspan>

<tspan x="10" y="1002">+    "_where": "/tmp/npmTestPublished",</tspan>

<tspan x="10" y="1018">+    "author": {</tspan>

<tspan x="10" y="1034">+        "email": "kaizhu256@gmail.com",</tspan>

<tspan x="10" y="1050">+        "name": "kai zhu"</tspan>

<tspan x="10" y="1066">+    },</tspan>

<tspan x="10" y="1082">+    "bin": {</tspan>

<tspan x="10" y="1098">+        "jslint-lite": "lib.jslint.js"</tspan>

<tspan x="10" y="1114">+    },</tspan>

<tspan x="10" y="1130">+    "bugs": {</tspan>

<tspan x="10" y="1146">+        "url": "https://github.com/kaizhu256/node-jslint-lite/issues"</tspan>

<tspan x="10" y="1162">+    },</tspan>

<tspan x="10" y="1178">+    "bundleDependencies": false,</tspan>

<tspan x="10" y="1194">+    "deprecated": false,</tspan>

<tspan x="10" y="1210">+    "description": "this zero-dependency package will provide browser-compatible versions of js\</tspan>
<tspan x="10" y="1226">lint (v2020.7.2) and csslint (v2018.2.25), with working web-demo",</tspan>

<tspan x="10" y="1242">+    "devDependencies": {</tspan>

<tspan x="10" y="1258">+        "utility2": "github:kaizhu256/node-utility2#alpha"</tspan>

<tspan x="10" y="1274">+    },</tspan>

<tspan x="10" y="1290">+    "engines": {</tspan>

<tspan x="10" y="1306">+        "node": "&gt;=12.0"</tspan>

<tspan x="10" y="1322">+    },</tspan>

<tspan x="10" y="1338">+    "fileCount": 16,</tspan>

<tspan x="10" y="1354">+    "homepage": "https://github.com/kaizhu256/node-jslint-lite",</tspan>

<tspan x="10" y="1370">+    "keywords": [</tspan>

<tspan x="10" y="1386">+        "csslint",</tspan>

<tspan x="10" y="1402">+        "jslint"</tspan>

<tspan x="10" y="1418">+    ],</tspan>

<tspan x="10" y="1434">+    "license": "MIT",</tspan>

<tspan x="10" y="1450">+    "main": "lib.jslint.js",</tspan>

<tspan x="10" y="1466">     "name": "jslint-lite",</tspan>

<tspan x="10" y="1482">-    "escapedName": "jslint-lite",</tspan>

<tspan x="10" y="1498">-    "rawSpec": "",</tspan>

<tspan x="10" y="1514">-    "saveSpec": null,</tspan>

<tspan x="10" y="1530">-    "fetchSpec": "latest"</tspan>

<tspan x="10" y="1546">-  },</tspan>

<tspan x="10" y="1562">-  "_requiredBy_": [</tspan>

<tspan x="10" y="1578">-    "#USER",</tspan>

<tspan x="10" y="1594">-    "/"</tspan>

<tspan x="10" y="1610">-  ],</tspan>

<tspan x="10" y="1626">-  "_resolved": "https://registry.npmjs.org/jslint-lite/-/jslint-lite-2020.8.19.tgz",</tspan>

<tspan x="10" y="1642">-  "_shasum": "045e53898573cd9815615fe288d512552293cf6a",</tspan>

<tspan x="10" y="1658">-  "_spec": "jslint-lite",</tspan>

<tspan x="10" y="1674">-  "_where": "/tmp/npmTestPublished",</tspan>

<tspan x="10" y="1690">-  "author": {</tspan>

<tspan x="10" y="1706">-    "name": "kai zhu",</tspan>

<tspan x="10" y="1722">-    "email": "kaizhu256@gmail.com"</tspan>

<tspan x="10" y="1738">-  },</tspan>

<tspan x="10" y="1754">-  "bin": {</tspan>

<tspan x="10" y="1770">-    "jslint-lite": "lib.jslint.js"</tspan>

<tspan x="10" y="1786">-  },</tspan>

<tspan x="10" y="1802">-  "bugs": {</tspan>

<tspan x="10" y="1818">-    "url": "https://github.com/kaizhu256/node-jslint-lite/issues"</tspan>

<tspan x="10" y="1834">-  },</tspan>

<tspan x="10" y="1850">-  "bundleDependencies": false,</tspan>

<tspan x="10" y="1866">-  "deprecated": false,</tspan>

<tspan x="10" y="1882">-  "description": "this zero-dependency package will provide browser-compatible versions of jsli\</tspan>
<tspan x="10" y="1898">nt (v2020.7.2) and csslint (v2018.2.25), with working web-demo",</tspan>

<tspan x="10" y="1914">-  "devDependencies": {</tspan>

<tspan x="10" y="1930">-    "utility2": "github:kaizhu256/node-utility2#alpha"</tspan>

<tspan x="10" y="1946">-  },</tspan>

<tspan x="10" y="1962">-  "engines": {</tspan>

<tspan x="10" y="1978">-    "node": "&gt;=12.0"</tspan>

<tspan x="10" y="1994">-  },</tspan>

<tspan x="10" y="2010">-  "fileCount": 16,</tspan>

<tspan x="10" y="2026">-  "homepage": "https://github.com/kaizhu256/node-jslint-lite",</tspan>

<tspan x="10" y="2042">-  "keywords": [</tspan>

<tspan x="10" y="2058">-    "csslint",</tspan>

<tspan x="10" y="2074">-    "jslint"</tspan>

<tspan x="10" y="2090">-  ],</tspan>

<tspan x="10" y="2106">-  "license": "MIT",</tspan>

<tspan x="10" y="2122">-  "main": "lib.jslint.js",</tspan>

<tspan x="10" y="2138">-  "name": "jslint-lite",</tspan>

<tspan x="10" y="2154">-  "nameAliasPublish": "csslint-lite kslint",</tspan>

<tspan x="10" y="2170">-  "nameLib": "jslint",</tspan>

<tspan x="10" y="2186">-  "nameOriginal": "jslint-lite",</tspan>

<tspan x="10" y="2202">-  "repository": {</tspan>

<tspan x="10" y="2218">-    "type": "git",</tspan>

<tspan x="10" y="2234">-    "url": "git+https://github.com/kaizhu256/node-jslint-lite.git"</tspan>

<tspan x="10" y="2250">-  },</tspan>

<tspan x="10" y="2266">-  "scripts": {</tspan>

<tspan x="10" y="2282">-    "build-ci": "./npm_scripts.sh",</tspan>

<tspan x="10" y="2298">-    "env": "env",</tspan>

<tspan x="10" y="2314">-    "eval": "./npm_scripts.sh",</tspan>

<tspan x="10" y="2330">-    "heroku-postbuild": "./npm_scripts.sh",</tspan>

<tspan x="10" y="2346">-    "postinstall": "./npm_scripts.sh",</tspan>

<tspan x="10" y="2362">-    "start": "./npm_scripts.sh",</tspan>

<tspan x="10" y="2378">-    "test": "./npm_scripts.sh",</tspan>

<tspan x="10" y="2394">-    "utility2": "./npm_scripts.sh"</tspan>

<tspan x="10" y="2410">-  },</tspan>

<tspan x="10" y="2426">-  "version": "2020.8.19"</tspan>

<tspan x="10" y="2442">+    "nameAliasPublish": "csslint-lite kslint",</tspan>

<tspan x="10" y="2458">+    "nameLib": "jslint",</tspan>

<tspan x="10" y="2474">+    "nameOriginal": "jslint-lite",</tspan>

<tspan x="10" y="2490">+    "repository": {</tspan>

<tspan x="10" y="2506">+        "type": "git",</tspan>

<tspan x="10" y="2522">+        "url": "git+https://github.com/kaizhu256/node-jslint-lite.git"</tspan>

<tspan x="10" y="2538">+    },</tspan>

<tspan x="10" y="2554">+    "scripts": {</tspan>

<tspan x="10" y="2570">+        "build-ci": "./npm_scripts.sh",</tspan>

<tspan x="10" y="2586">+        "env": "env",</tspan>

<tspan x="10" y="2602">+        "eval": "./npm_scripts.sh",</tspan>

<tspan x="10" y="2618">+        "heroku-postbuild": "./npm_scripts.sh",</tspan>

<tspan x="10" y="2634">+        "postinstall": "./npm_scripts.sh",</tspan>

<tspan x="10" y="2650">+        "start": "./npm_scripts.sh",</tspan>

<tspan x="10" y="2666">+        "test": "./npm_scripts.sh",</tspan>

<tspan x="10" y="2682">+        "utility2": "./npm_scripts.sh"</tspan>

<tspan x="10" y="2698">+    },</tspan>

<tspan x="10" y="2714">+    "version": "2020.8.19"</tspan>

<tspan x="10" y="2730"> }</tspan>

<tspan x="10" y="2746">--- /tmp/npmTestPublished/node_modules/jslint-lite/test.js.autofix.old	2020-09-04 18:56:40.19508\</tspan>
<tspan x="10" y="2762">6778 +0000</tspan>

<tspan x="10" y="2778">+++ /tmp/npmTestPublished/node_modules/jslint-lite/test.js	2020-09-04 18:56:40.195086778 +0000</tspan>

<tspan x="10" y="2794">@@ -34,29 +34,29 @@</tspan>

<tspan x="10" y="2810">         isBrowser &amp;&amp; typeof globalThis.importScripts === "function"</tspan>

<tspan x="10" y="2826">     );</tspan>

<tspan x="10" y="2842">     // init function</tspan>

<tspan x="10" y="2858">+    function objectDeepCopyWithKeysSorted(obj) {</tspan>

<tspan x="10" y="2874">+    /*</tspan>

<tspan x="10" y="2890">+     * this function will recursively deep-copy &lt;obj&gt; with keys sorted</tspan>

<tspan x="10" y="2906">+     */</tspan>

<tspan x="10" y="2922">+        let sorted;</tspan>

<tspan x="10" y="2938">+        if (typeof obj !== "object" || !obj) {</tspan>

<tspan x="10" y="2954">+            return obj;</tspan>

<tspan x="10" y="2970">+        }</tspan>

<tspan x="10" y="2986">+        // recursively deep-copy list with child-keys sorted</tspan>

<tspan x="10" y="3002">+        if (Array.isArray(obj)) {</tspan>

<tspan x="10" y="3018">+            return obj.map(objectDeepCopyWithKeysSorted);</tspan>

<tspan x="10" y="3034">+        }</tspan>

<tspan x="10" y="3050">+        // recursively deep-copy obj with keys sorted</tspan>

<tspan x="10" y="3066">+        sorted = {};</tspan>

<tspan x="10" y="3082">+        Object.keys(obj).sort().forEach(function (key) {</tspan>

<tspan x="10" y="3098">+            sorted[key] = objectDeepCopyWithKeysSorted(obj[key]);</tspan>

<tspan x="10" y="3114">+        });</tspan>

<tspan x="10" y="3130">+        return sorted;</tspan>

<tspan x="10" y="3146">+    }</tspan>

<tspan x="10" y="3162">     function assertJsonEqual(aa, bb) {</tspan>

<tspan x="10" y="3178">     /*</tspan>

<tspan x="10" y="3194">      * this function will assert JSON.stringify(&lt;aa&gt;) === JSON.stringify(&lt;bb&gt;)</tspan>

<tspan x="10" y="3210">      */</tspan>

<tspan x="10" y="3226">-        function objectDeepCopyWithKeysSorted(obj) {</tspan>

<tspan x="10" y="3242">-        /*</tspan>

<tspan x="10" y="3258">-         * this function will recursively deep-copy &lt;obj&gt; with keys sorted</tspan>

<tspan x="10" y="3274">-         */</tspan>

<tspan x="10" y="3290">-            let sorted;</tspan>

<tspan x="10" y="3306">-            if (typeof obj !== "object" || !obj) {</tspan>

<tspan x="10" y="3322">-                return obj;</tspan>

<tspan x="10" y="3338">-            }</tspan>

<tspan x="10" y="3354">-            // recursively deep-copy list with child-keys sorted</tspan>

<tspan x="10" y="3370">-            if (Array.isArray(obj)) {</tspan>

<tspan x="10" y="3386">-                return obj.map(objectDeepCopyWithKeysSorted);</tspan>

<tspan x="10" y="3402">-            }</tspan>

<tspan x="10" y="3418">-            // recursively deep-copy obj with keys sorted</tspan>

<tspan x="10" y="3434">-            sorted = {};</tspan>

<tspan x="10" y="3450">-            Object.keys(obj).sort().forEach(function (key) {</tspan>

<tspan x="10" y="3466">-                sorted[key] = objectDeepCopyWithKeysSorted(obj[key]);</tspan>

<tspan x="10" y="3482">-            });</tspan>

<tspan x="10" y="3498">-            return sorted;</tspan>

<tspan x="10" y="3514">-        }</tspan>

<tspan x="10" y="3530">         aa = JSON.stringify(objectDeepCopyWithKeysSorted(aa));</tspan>

<tspan x="10" y="3546">         bb = JSON.stringify(objectDeepCopyWithKeysSorted(bb));</tspan>

<tspan x="10" y="3562">         if (aa !== bb) {</tspan>

<tspan x="10" y="3578">@@ -174,6 +174,7 @@</tspan>

<tspan x="10" y="3594">     local.isWebWorker = isWebWorker;</tspan>

<tspan x="10" y="3610">     local.nop = nop;</tspan>

<tspan x="10" y="3626">     local.objectAssignDefault = objectAssignDefault;</tspan>

<tspan x="10" y="3642">+    local.objectDeepCopyWithKeysSorted = objectDeepCopyWithKeysSorted;</tspan>

<tspan x="10" y="3658">     local.onErrorThrow = onErrorThrow;</tspan>

<tspan x="10" y="3674"> }());</tspan>

<tspan x="10" y="3690"> // assets.utility2.header.js - end</tspan>

<tspan x="10" y="3706">testRunDefault - 1696 ms - [node test-case 6 of 9 passed] - testCase_buildApidoc_default</tspan>

<tspan x="10" y="3722">--- /tmp/npmTestPublished/node_modules/jslint-lite/lib.jslint.js.autofix.old	2020-09-04 18:56:41\</tspan>
<tspan x="10" y="3738">.027502748 +0000</tspan>

<tspan x="10" y="3754">+++ /tmp/npmTestPublished/node_modules/jslint-lite/lib.jslint.js	2020-09-04 18:56:41.023500748 +\</tspan>
<tspan x="10" y="3770">0000</tspan>

<tspan x="10" y="3786">@@ -43,29 +43,29 @@</tspan>

<tspan x="10" y="3802">         isBrowser &amp;&amp; typeof globalThis.importScripts === "function"</tspan>

<tspan x="10" y="3818">     );</tspan>

<tspan x="10" y="3834">     // init function</tspan>

<tspan x="10" y="3850">+    function objectDeepCopyWithKeysSorted(obj) {</tspan>

<tspan x="10" y="3866">+    /*</tspan>

<tspan x="10" y="3882">+     * this function will recursively deep-copy &lt;obj&gt; with keys sorted</tspan>

<tspan x="10" y="3898">+     */</tspan>

<tspan x="10" y="3914">+        let sorted;</tspan>

<tspan x="10" y="3930">+        if (typeof obj !== "object" || !obj) {</tspan>

<tspan x="10" y="3946">+            return obj;</tspan>

<tspan x="10" y="3962">+        }</tspan>

<tspan x="10" y="3978">+        // recursively deep-copy list with child-keys sorted</tspan>

<tspan x="10" y="3994">+        if (Array.isArray(obj)) {</tspan>

<tspan x="10" y="4010">+            return obj.map(objectDeepCopyWithKeysSorted);</tspan>

<tspan x="10" y="4026">+        }</tspan>

<tspan x="10" y="4042">+        // recursively deep-copy obj with keys sorted</tspan>

<tspan x="10" y="4058">+        sorted = {};</tspan>

<tspan x="10" y="4074">+        Object.keys(obj).sort().forEach(function (key) {</tspan>

<tspan x="10" y="4090">+            sorted[key] = objectDeepCopyWithKeysSorted(obj[key]);</tspan>

<tspan x="10" y="4106">+        });</tspan>

<tspan x="10" y="4122">+        return sorted;</tspan>

<tspan x="10" y="4138">+    }</tspan>

<tspan x="10" y="4154">     function assertJsonEqual(aa, bb) {</tspan>

<tspan x="10" y="4170">     /*</tspan>

<tspan x="10" y="4186">      * this function will assert JSON.stringify(&lt;aa&gt;) === JSON.stringify(&lt;bb&gt;)</tspan>

<tspan x="10" y="4202">      */</tspan>

<tspan x="10" y="4218">-        function objectDeepCopyWithKeysSorted(obj) {</tspan>

<tspan x="10" y="4234">-        /*</tspan>

<tspan x="10" y="4250">-         * this function will recursively deep-copy &lt;obj&gt; with keys sorted</tspan>

<tspan x="10" y="4266">-         */</tspan>

<tspan x="10" y="4282">-            let sorted;</tspan>

<tspan x="10" y="4298">-            if (typeof obj !== "object" || !obj) {</tspan>

<tspan x="10" y="4314">-                return obj;</tspan>

<tspan x="10" y="4330">-            }</tspan>

<tspan x="10" y="4346">-            // recursively deep-copy list with child-keys sorted</tspan>

<tspan x="10" y="4362">-            if (Array.isArray(obj)) {</tspan>

<tspan x="10" y="4378">-                return obj.map(objectDeepCopyWithKeysSorted);</tspan>

<tspan x="10" y="4394">-            }</tspan>

<tspan x="10" y="4410">-            // recursively deep-copy obj with keys sorted</tspan>

<tspan x="10" y="4426">-            sorted = {};</tspan>

<tspan x="10" y="4442">-            Object.keys(obj).sort().forEach(function (key) {</tspan>

<tspan x="10" y="4458">-                sorted[key] = objectDeepCopyWithKeysSorted(obj[key]);</tspan>

<tspan x="10" y="4474">-            });</tspan>

<tspan x="10" y="4490">-            return sorted;</tspan>

<tspan x="10" y="4506">-        }</tspan>

<tspan x="10" y="4522">         aa = JSON.stringify(objectDeepCopyWithKeysSorted(aa));</tspan>

<tspan x="10" y="4538">         bb = JSON.stringify(objectDeepCopyWithKeysSorted(bb));</tspan>

<tspan x="10" y="4554">         if (aa !== bb) {</tspan>

<tspan x="10" y="4570">@@ -183,6 +183,7 @@</tspan>

<tspan x="10" y="4586">     local.isWebWorker = isWebWorker;</tspan>

<tspan x="10" y="4602">     local.nop = nop;</tspan>

<tspan x="10" y="4618">     local.objectAssignDefault = objectAssignDefault;</tspan>

<tspan x="10" y="4634">+    local.objectDeepCopyWithKeysSorted = objectDeepCopyWithKeysSorted;</tspan>

<tspan x="10" y="4650">     local.onErrorThrow = onErrorThrow;</tspan>

<tspan x="10" y="4666"> }());</tspan>

<tspan x="10" y="4682"> // assets.utility2.header.js - end</tspan>

<tspan x="10" y="4698">testRunDefault - 2336 ms - [node test-case 7 of 9 passed] - testCase_jslintAndPrintDir_coverage</tspan>

<tspan x="10" y="4714"></tspan>

<tspan x="10" y="4730">DevTools listening on ws://127.0.0.1:44039/devtools/browser/2687ccd5-0f4d-4cd6-97a9-60af682887dc</tspan>

<tspan x="10" y="4746">jslint - 9ms - /tmp/npmTestPublished/node_modules/jslint-lite/.tmp/build/app/assets.example.html</tspan>

<tspan x="10" y="4762">jslint - 26ms - /tmp/npmTestPublished/node_modules/jslint-lite/.tmp/build/app/assets.example.js</tspan>

<tspan x="10" y="4778">jslint - 28ms - /tmp/npmTestPublished/node_modules/jslint-lite/.tmp/build/app/assets.jslint.css</tspan>

<tspan x="10" y="4794">jslint - 31ms - /tmp/npmTestPublished/node_modules/jslint-lite/.tmp/build/app/assets.jslint.html</tspan>

<tspan x="10" y="4810">jslint - 38ms - /tmp/npmTestPublished/node_modules/jslint-lite/.tmp/build/app/assets.test.js</tspan>

<tspan x="10" y="4826">jslint - 41ms - /tmp/npmTestPublished/node_modules/jslint-lite/.tmp/build/app/assets.utility2.ht\</tspan>
<tspan x="10" y="4842">ml</tspan>

<tspan x="10" y="4858">jslint - 45ms - /tmp/npmTestPublished/node_modules/jslint-lite/.tmp/build/app/index.html</tspan>

<tspan x="10" y="4874">jslint - 47ms - /tmp/npmTestPublished/node_modules/jslint-lite/.tmp/build/app/utility2.state.ini\</tspan>
<tspan x="10" y="4890">t.js</tspan>

<tspan x="10" y="4906">jslint - 278ms - /tmp/npmTestPublished/node_modules/jslint-lite/.tmp/build/app/assets.utility2.l\</tspan>
<tspan x="10" y="4922">ib.jslint.js</tspan>

<tspan x="10" y="4938">jslint - 309ms - /tmp/npmTestPublished/node_modules/jslint-lite/.tmp/build/app/assets.jslint.js</tspan>

<tspan x="10" y="4954">[0904/185642.159811:INFO:CONSOLE(9)] "jslint inputCsslint1.css</tspan>

<tspan x="10" y="4970">  1 warning - zero-units - Values of 0 shouldn't have units specified.</tspan>

<tspan x="10" y="4986">    You don't need to specify units when a value is 0. // line 6, column 13</tspan>

<tspan x="10" y="5002">    margin: 0px;", source: http://127.0.0.1:57574/assets.example.js (9)</tspan>

<tspan x="10" y="5018">[0904/185642.175230:INFO:CONSOLE(9)] "jslint inputJslint1.js</tspan>

<tspan x="10" y="5034">  1 Undeclared 'console'. // line 5, column 2</tspan>

<tspan x="10" y="5050">    console.log(message);</tspan>

<tspan x="10" y="5066">  2 Undeclared 'console'. // line 6, column 2</tspan>

<tspan x="10" y="5082">    console.log(null);", source: http://127.0.0.1:57574/assets.example.js (9)</tspan>

<tspan x="10" y="5098">[0904/185642.221552:INFO:CONSOLE(9)] "testRunDefault - 33 ms - [browser test-case 1 of 6 passed]\</tspan>
<tspan x="10" y="5114"> - testCase_jslint0_coverage", source: http://127.0.0.1:57574/assets.example.js (9)</tspan>

<tspan x="10" y="5130">[0904/185642.308673:INFO:CONSOLE(9)] "testRunDefault - 120 ms - [browser test-case 2 of 6 passed\</tspan>
<tspan x="10" y="5146">] - testCase_jslint0_err", source: http://127.0.0.1:57574/assets.example.js (9)</tspan>

<tspan x="10" y="5162">[0904/185642.312149:INFO:CONSOLE(9)] "testRunDefault - 124 ms - [browser test-case 3 of 6 passed\</tspan>
<tspan x="10" y="5178">] - testCase_jslintAndPrintDir_coverage", source: http://127.0.0.1:57574/assets.example.js (9)</tspan>

<tspan x="10" y="5194">[0904/185642.319319:INFO:CONSOLE(9)] "testRunDefault - 131 ms - [browser test-case 4 of 6 passed\</tspan>
<tspan x="10" y="5210">] - testCase_jslintAndPrint_coverage", source: http://127.0.0.1:57574/assets.example.js (9)</tspan>

<tspan x="10" y="5226">&gt; [0904/185642.341478:INFO:CONSOLE(9)] "testRunDefault - 153 ms - [browser test-case 5 of 6 pass\</tspan>
<tspan x="10" y="5242">ed] - testCase_jslintAutofix_coverage", source: http://127.0.0.1:57574/assets.example.js (9)</tspan>

<tspan x="10" y="5258">[0904/185642.344985:INFO:CONSOLE(9)] "testRunDefault - 157 ms - [browser test-case 6 of 6 passed\</tspan>
<tspan x="10" y="5274">] - testCase_nop_default", source: http://127.0.0.1:57574/assets.example.js (9)</tspan>

<tspan x="10" y="5290">http-server listening on port 42715</tspan>

<tspan x="10" y="5306">[0904/185642.456087:INFO:CONSOLE(9)] "domOnEventWindowOnloadTimeElapsed = 935", source: http://1\</tspan>
<tspan x="10" y="5322">27.0.0.1:57574/assets.example.js (9)</tspan>

<tspan x="10" y="5338">testRunDefault - 3981 ms - [node test-case 8 of 9 passed] - testCase_webpage_default</tspan>

<tspan x="10" y="5354">testRunDefault - 6347 ms - testCase pending - testCase_buildApp_default ...</tspan>

<tspan x="10" y="5370">testRunDefault - 7407 ms - [node test-case 9 of 9 passed] - testCase_buildApp_default</tspan>

<tspan x="10" y="5386">--------------|---------|---------|---------|---------|</tspan>

<tspan x="10" y="5402">File          | % Stmts | % Brchs | % Funcs | % Lines |</tspan>

<tspan x="10" y="5418">--------------|---------|---------|---------|---------|</tspan>

<tspan x="10" y="5434">All files     |   96.88 |   94.28 |   98.69 |   96.87 |</tspan>

<tspan x="10" y="5450">example.js    |     100 |     100 |     100 |     100 |</tspan>

<tspan x="10" y="5466">lib.jslint.js |   96.75 |   94.03 |   98.61 |   96.74 |</tspan>

<tspan x="10" y="5482">test.js       |     100 |     100 |     100 |     100 |</tspan>

<tspan x="10" y="5498">--------------|---------|---------|---------|---------|</tspan>

<tspan x="10" y="5514"></tspan>

<tspan x="10" y="5530">fsWriteFileWithMkdirpSync - /tmp/npmTestPublished/node_modules/jslint-lite/.tmp/build/coverage/c\</tspan>
<tspan x="10" y="5546">overage.txt</tspan>

<tspan x="10" y="5562">fsWriteFileWithMkdirpSync - /tmp/npmTestPublished/node_modules/jslint-lite/.tmp/build/coverage/i\</tspan>
<tspan x="10" y="5578">ndex.html</tspan>

<tspan x="10" y="5594">fsWriteFileWithMkdirpSync - /tmp/npmTestPublished/node_modules/jslint-lite/.tmp/build/coverage/e\</tspan>
<tspan x="10" y="5610">xample.js.html</tspan>

<tspan x="10" y="5626">fsWriteFileWithMkdirpSync - /tmp/npmTestPublished/node_modules/jslint-lite/.tmp/build/coverage/l\</tspan>
<tspan x="10" y="5642">ib.jslint.js.html</tspan>

<tspan x="10" y="5658">fsWriteFileWithMkdirpSync - /tmp/npmTestPublished/node_modules/jslint-lite/.tmp/build/coverage/t\</tspan>
<tspan x="10" y="5674">est.js.html</tspan>

<tspan x="10" y="5690">fsWriteFileWithMkdirpSync - /tmp/npmTestPublished/node_modules/jslint-lite/.tmp/build/coverage/c\</tspan>
<tspan x="10" y="5706">overage.all.html</tspan>

<tspan x="10" y="5722">fsWriteFileWithMkdirpSync - /tmp/npmTestPublished/node_modules/jslint-lite/.tmp/build/coverage/c\</tspan>
<tspan x="10" y="5738">overage.json</tspan>

<tspan x="10" y="5754">fsWriteFileWithMkdirpSync - /tmp/npmTestPublished/node_modules/jslint-lite/.tmp/build/coverage/c\</tspan>
<tspan x="10" y="5770">overage.include.json</tspan>

<tspan x="10" y="5786">fsWriteFileWithMkdirpSync - /tmp/npmTestPublished/node_modules/jslint-lite/.tmp/build/coverage/c\</tspan>
<tspan x="10" y="5802">overage.badge.svg</tspan>

<tspan x="10" y="5818">istanbul - created coverage file /tmp/npmTestPublished/node_modules/jslint-lite/.tmp/build/cover\</tspan>
<tspan x="10" y="5834">age/index.html</tspan>

<tspan x="10" y="5850"></tspan>

<tspan x="10" y="5866">-------------------------------------------------------</tspan>

<tspan x="10" y="5882">| test-report - npmTestPublished - browser - / - Mozilla/5.0 (X11; Linux x86_64) AppleWebKit/537\</tspan>
<tspan x="10" y="5898">.36 (KHTML, like Gecko) HeadlessChrome/85.0.4183.83 Safari/537.36 - 2020-09-04T18:56:41.675Z</tspan>

<tspan x="10" y="5914">|     167 ms            0 failed        6 passed      |</tspan>

<tspan x="10" y="5930">-------------------------------------------------------</tspan>

<tspan x="10" y="5946">| test-report - npmTestPublished - node - linux v14.9.0 - 2020-09-04T18:56:36.864Z</tspan>

<tspan x="10" y="5962">|    7408 ms            0 failed        9 passed      |</tspan>

<tspan x="10" y="5978">-------------------------------------------------------</tspan>

<tspan x="10" y="5994"></tspan>

<tspan x="10" y="6010">fsWriteFileWithMkdirpSync - /tmp/npmTestPublished/node_modules/jslint-lite/.tmp/build/test-repor\</tspan>
<tspan x="10" y="6026">t.html</tspan>

<tspan x="10" y="6042">fsWriteFileWithMkdirpSync - /tmp/npmTestPublished/node_modules/jslint-lite/.tmp/build/build.badg\</tspan>
<tspan x="10" y="6058">e.svg</tspan>

<tspan x="10" y="6074">fsWriteFileWithMkdirpSync - /tmp/npmTestPublished/node_modules/jslint-lite/.tmp/build/test-repor\</tspan>
<tspan x="10" y="6090">t.badge.svg</tspan>

<tspan x="10" y="6106"></tspan>

<tspan x="10" y="6122">npmTestPublished - 0 failed tests</tspan>

<tspan x="10" y="6138"></tspan>

<tspan x="10" y="6154"></tspan>

<tspan x="10" y="6170">\x1b[35m[MODE_BUILD=npmTestPublished]\x1b[0m - 2020-09-04T18:56:46.563Z - EXIT_CODE - 0</tspan>

</text>
</svg>
