<svg height="4254" width="720" xmlns="http://www.w3.org/2000/svg">
<rect height="4254" fill="#555" width="720"></rect>
<text fill="#7f7" font-family="Courier New" font-size="12" xml:space="preserve">
<tspan x="10" y="26"></tspan>

<tspan x="10" y="42">\x1b[35m[MODE_BUILD=npmTestPublished]\x1b[0m - 2020-08-19T22:03:15.858Z - npm-testing /tmp/npmTe\</tspan>
<tspan x="10" y="58">stPublished/node_modules/jslint-lite</tspan>

<tspan x="10" y="74"></tspan>

<tspan x="10" y="90"></tspan>

<tspan x="10" y="106">istanbul - covering $ /home/travis/.nvm/versions/node/v14.8.0/bin/node /tmp/npmTestPublished/nod\</tspan>
<tspan x="10" y="122">e_modules/jslint-lite/test.js</tspan>

<tspan x="10" y="138">&gt; jslint - 2ms - /tmp/npmTestPublished/node_modules/jslint-lite/README.md</tspan>

<tspan x="10" y="154">jslint - 8ms - /tmp/npmTestPublished/node_modules/jslint-lite/npm_scripts.sh</tspan>

<tspan x="10" y="170">jslint - 15ms - /tmp/npmTestPublished/node_modules/jslint-lite/package.json</tspan>

<tspan x="10" y="186">jslint - 61ms - /tmp/npmTestPublished/node_modules/jslint-lite/test.js</tspan>

<tspan x="10" y="202">jslint - 328ms - /tmp/npmTestPublished/node_modules/jslint-lite/lib.jslint.js</tspan>

<tspan x="10" y="218">http-server listening on port 34109</tspan>

<tspan x="10" y="234">testRunDefault - 951 ms - [node test-case 1 of 9 passed] - testCase_jslint0_coverage</tspan>

<tspan x="10" y="250">testRunDefault - 995 ms - [node test-case 2 of 9 passed] - testCase_jslint0_err</tspan>

<tspan x="10" y="266">testRunDefault - 1002 ms - [node test-case 3 of 9 passed] - testCase_jslintAndPrint_coverage</tspan>

<tspan x="10" y="282">testRunDefault - 1047 ms - [node test-case 4 of 9 passed] - testCase_jslintAutofix_coverage</tspan>

<tspan x="10" y="298">testRunDefault - 1048 ms - [node test-case 5 of 9 passed] - testCase_nop_default</tspan>

<tspan x="10" y="314">--- /tmp/npmTestPublished/node_modules/jslint-lite/package.json.autofix.old	2020-08-19 22:03:18.\</tspan>
<tspan x="10" y="330">959011205 +0000</tspan>

<tspan x="10" y="346">+++ /tmp/npmTestPublished/node_modules/jslint-lite/package.json	2020-08-19 22:03:18.959011205 +0\</tspan>
<tspan x="10" y="362">000</tspan>

<tspan x="10" y="378">@@ -1,73 +1,73 @@</tspan>

<tspan x="10" y="394"> {</tspan>

<tspan x="10" y="410">-  "!!jslint_utility2": true,</tspan>

<tspan x="10" y="426">-  "_from": "jslint-lite",</tspan>

<tspan x="10" y="442">-  "_id": "jslint-lite@2020.8.19",</tspan>

<tspan x="10" y="458">-  "_inBundle": false,</tspan>

<tspan x="10" y="474">-  "_integrity": "sha512-AZezaqbOInsNZ+nDQzhqYeRsDof6mPR6iT+ddhjKCK5oSF9tF4rz3EgeXcRSaAynDl73W/u\</tspan>
<tspan x="10" y="490">DP/dJKXKb3njmpQ==",</tspan>

<tspan x="10" y="506">-  "_location": "/jslint-lite",</tspan>

<tspan x="10" y="522">-  "_phantomChildren": {},</tspan>

<tspan x="10" y="538">-  "_requested": {</tspan>

<tspan x="10" y="554">-    "type": "tag",</tspan>

<tspan x="10" y="570">-    "registry": true,</tspan>

<tspan x="10" y="586">-    "raw": "jslint-lite",</tspan>

<tspan x="10" y="602">+    "!!jslint_utility2": true,</tspan>

<tspan x="10" y="618">+    "_from": "jslint-lite",</tspan>

<tspan x="10" y="634">+    "_id": "jslint-lite@2020.8.19",</tspan>

<tspan x="10" y="650">+    "_inBundle": false,</tspan>

<tspan x="10" y="666">+    "_integrity": "sha512-AZezaqbOInsNZ+nDQzhqYeRsDof6mPR6iT+ddhjKCK5oSF9tF4rz3EgeXcRSaAynDl73W\</tspan>
<tspan x="10" y="682">/uDP/dJKXKb3njmpQ==",</tspan>

<tspan x="10" y="698">+    "_location": "/jslint-lite",</tspan>

<tspan x="10" y="714">+    "_phantomChildren": {},</tspan>

<tspan x="10" y="730">+    "_requested": {</tspan>

<tspan x="10" y="746">+        "escapedName": "jslint-lite",</tspan>

<tspan x="10" y="762">+        "fetchSpec": "latest",</tspan>

<tspan x="10" y="778">+        "name": "jslint-lite",</tspan>

<tspan x="10" y="794">+        "raw": "jslint-lite",</tspan>

<tspan x="10" y="810">+        "rawSpec": "",</tspan>

<tspan x="10" y="826">+        "registry": true,</tspan>

<tspan x="10" y="842">+        "saveSpec": null,</tspan>

<tspan x="10" y="858">+        "type": "tag"</tspan>

<tspan x="10" y="874">+    },</tspan>

<tspan x="10" y="890">+    "_requiredBy_": [</tspan>

<tspan x="10" y="906">+        "#USER",</tspan>

<tspan x="10" y="922">+        "/"</tspan>

<tspan x="10" y="938">+    ],</tspan>

<tspan x="10" y="954">+    "_resolved": "https://registry.npmjs.org/jslint-lite/-/jslint-lite-2020.8.19.tgz",</tspan>

<tspan x="10" y="970">+    "_shasum": "045e53898573cd9815615fe288d512552293cf6a",</tspan>

<tspan x="10" y="986">+    "_spec": "jslint-lite",</tspan>

<tspan x="10" y="1002">+    "_where": "/tmp/npmTestPublished",</tspan>

<tspan x="10" y="1018">+    "author": {</tspan>

<tspan x="10" y="1034">+        "email": "kaizhu256@gmail.com",</tspan>

<tspan x="10" y="1050">+        "name": "kai zhu"</tspan>

<tspan x="10" y="1066">+    },</tspan>

<tspan x="10" y="1082">+    "bin": {</tspan>

<tspan x="10" y="1098">+        "jslint-lite": "lib.jslint.js"</tspan>

<tspan x="10" y="1114">+    },</tspan>

<tspan x="10" y="1130">+    "bugs": {</tspan>

<tspan x="10" y="1146">+        "url": "https://github.com/kaizhu256/node-jslint-lite/issues"</tspan>

<tspan x="10" y="1162">+    },</tspan>

<tspan x="10" y="1178">+    "bundleDependencies": false,</tspan>

<tspan x="10" y="1194">+    "deprecated": false,</tspan>

<tspan x="10" y="1210">+    "description": "this zero-dependency package will provide browser-compatible versions of js\</tspan>
<tspan x="10" y="1226">lint (v2020.7.2) and csslint (v2018.2.25), with working web-demo",</tspan>

<tspan x="10" y="1242">+    "devDependencies": {</tspan>

<tspan x="10" y="1258">+        "utility2": "github:kaizhu256/node-utility2#alpha"</tspan>

<tspan x="10" y="1274">+    },</tspan>

<tspan x="10" y="1290">+    "engines": {</tspan>

<tspan x="10" y="1306">+        "node": "&gt;=12.0"</tspan>

<tspan x="10" y="1322">+    },</tspan>

<tspan x="10" y="1338">+    "fileCount": 16,</tspan>

<tspan x="10" y="1354">+    "homepage": "https://github.com/kaizhu256/node-jslint-lite",</tspan>

<tspan x="10" y="1370">+    "keywords": [</tspan>

<tspan x="10" y="1386">+        "csslint",</tspan>

<tspan x="10" y="1402">+        "jslint"</tspan>

<tspan x="10" y="1418">+    ],</tspan>

<tspan x="10" y="1434">+    "license": "MIT",</tspan>

<tspan x="10" y="1450">+    "main": "lib.jslint.js",</tspan>

<tspan x="10" y="1466">     "name": "jslint-lite",</tspan>

<tspan x="10" y="1482">-    "escapedName": "jslint-lite",</tspan>

<tspan x="10" y="1498">-    "rawSpec": "",</tspan>

<tspan x="10" y="1514">-    "saveSpec": null,</tspan>

<tspan x="10" y="1530">-    "fetchSpec": "latest"</tspan>

<tspan x="10" y="1546">-  },</tspan>

<tspan x="10" y="1562">-  "_requiredBy_": [</tspan>

<tspan x="10" y="1578">-    "#USER",</tspan>

<tspan x="10" y="1594">-    "/"</tspan>

<tspan x="10" y="1610">-  ],</tspan>

<tspan x="10" y="1626">-  "_resolved": "https://registry.npmjs.org/jslint-lite/-/jslint-lite-2020.8.19.tgz",</tspan>

<tspan x="10" y="1642">-  "_shasum": "045e53898573cd9815615fe288d512552293cf6a",</tspan>

<tspan x="10" y="1658">-  "_spec": "jslint-lite",</tspan>

<tspan x="10" y="1674">-  "_where": "/tmp/npmTestPublished",</tspan>

<tspan x="10" y="1690">-  "author": {</tspan>

<tspan x="10" y="1706">-    "name": "kai zhu",</tspan>

<tspan x="10" y="1722">-    "email": "kaizhu256@gmail.com"</tspan>

<tspan x="10" y="1738">-  },</tspan>

<tspan x="10" y="1754">-  "bin": {</tspan>

<tspan x="10" y="1770">-    "jslint-lite": "lib.jslint.js"</tspan>

<tspan x="10" y="1786">-  },</tspan>

<tspan x="10" y="1802">-  "bugs": {</tspan>

<tspan x="10" y="1818">-    "url": "https://github.com/kaizhu256/node-jslint-lite/issues"</tspan>

<tspan x="10" y="1834">-  },</tspan>

<tspan x="10" y="1850">-  "bundleDependencies": false,</tspan>

<tspan x="10" y="1866">-  "deprecated": false,</tspan>

<tspan x="10" y="1882">-  "description": "this zero-dependency package will provide browser-compatible versions of jsli\</tspan>
<tspan x="10" y="1898">nt (v2020.7.2) and csslint (v2018.2.25), with working web-demo",</tspan>

<tspan x="10" y="1914">-  "devDependencies": {</tspan>

<tspan x="10" y="1930">-    "utility2": "github:kaizhu256/node-utility2#alpha"</tspan>

<tspan x="10" y="1946">-  },</tspan>

<tspan x="10" y="1962">-  "engines": {</tspan>

<tspan x="10" y="1978">-    "node": "&gt;=12.0"</tspan>

<tspan x="10" y="1994">-  },</tspan>

<tspan x="10" y="2010">-  "fileCount": 16,</tspan>

<tspan x="10" y="2026">-  "homepage": "https://github.com/kaizhu256/node-jslint-lite",</tspan>

<tspan x="10" y="2042">-  "keywords": [</tspan>

<tspan x="10" y="2058">-    "csslint",</tspan>

<tspan x="10" y="2074">-    "jslint"</tspan>

<tspan x="10" y="2090">-  ],</tspan>

<tspan x="10" y="2106">-  "license": "MIT",</tspan>

<tspan x="10" y="2122">-  "main": "lib.jslint.js",</tspan>

<tspan x="10" y="2138">-  "name": "jslint-lite",</tspan>

<tspan x="10" y="2154">-  "nameAliasPublish": "csslint-lite kslint",</tspan>

<tspan x="10" y="2170">-  "nameLib": "jslint",</tspan>

<tspan x="10" y="2186">-  "nameOriginal": "jslint-lite",</tspan>

<tspan x="10" y="2202">-  "repository": {</tspan>

<tspan x="10" y="2218">-    "type": "git",</tspan>

<tspan x="10" y="2234">-    "url": "git+https://github.com/kaizhu256/node-jslint-lite.git"</tspan>

<tspan x="10" y="2250">-  },</tspan>

<tspan x="10" y="2266">-  "scripts": {</tspan>

<tspan x="10" y="2282">-    "build-ci": "./npm_scripts.sh",</tspan>

<tspan x="10" y="2298">-    "env": "env",</tspan>

<tspan x="10" y="2314">-    "eval": "./npm_scripts.sh",</tspan>

<tspan x="10" y="2330">-    "heroku-postbuild": "./npm_scripts.sh",</tspan>

<tspan x="10" y="2346">-    "postinstall": "./npm_scripts.sh",</tspan>

<tspan x="10" y="2362">-    "start": "./npm_scripts.sh",</tspan>

<tspan x="10" y="2378">-    "test": "./npm_scripts.sh",</tspan>

<tspan x="10" y="2394">-    "utility2": "./npm_scripts.sh"</tspan>

<tspan x="10" y="2410">-  },</tspan>

<tspan x="10" y="2426">-  "version": "2020.8.19"</tspan>

<tspan x="10" y="2442">+    "nameAliasPublish": "csslint-lite kslint",</tspan>

<tspan x="10" y="2458">+    "nameLib": "jslint",</tspan>

<tspan x="10" y="2474">+    "nameOriginal": "jslint-lite",</tspan>

<tspan x="10" y="2490">+    "repository": {</tspan>

<tspan x="10" y="2506">+        "type": "git",</tspan>

<tspan x="10" y="2522">+        "url": "git+https://github.com/kaizhu256/node-jslint-lite.git"</tspan>

<tspan x="10" y="2538">+    },</tspan>

<tspan x="10" y="2554">+    "scripts": {</tspan>

<tspan x="10" y="2570">+        "build-ci": "./npm_scripts.sh",</tspan>

<tspan x="10" y="2586">+        "env": "env",</tspan>

<tspan x="10" y="2602">+        "eval": "./npm_scripts.sh",</tspan>

<tspan x="10" y="2618">+        "heroku-postbuild": "./npm_scripts.sh",</tspan>

<tspan x="10" y="2634">+        "postinstall": "./npm_scripts.sh",</tspan>

<tspan x="10" y="2650">+        "start": "./npm_scripts.sh",</tspan>

<tspan x="10" y="2666">+        "test": "./npm_scripts.sh",</tspan>

<tspan x="10" y="2682">+        "utility2": "./npm_scripts.sh"</tspan>

<tspan x="10" y="2698">+    },</tspan>

<tspan x="10" y="2714">+    "version": "2020.8.19"</tspan>

<tspan x="10" y="2730"> }</tspan>

<tspan x="10" y="2746">testRunDefault - 1667 ms - [node test-case 6 of 9 passed] - testCase_buildApidoc_default</tspan>

<tspan x="10" y="2762">testRunDefault - 2251 ms - [node test-case 7 of 9 passed] - testCase_jslintAndPrintDir_coverage</tspan>

<tspan x="10" y="2778"></tspan>

<tspan x="10" y="2794">DevTools listening on ws://127.0.0.1:40693/devtools/browser/147b36c0-5d04-48bf-9d3d-824c41fd4f03</tspan>

<tspan x="10" y="2810">jslint - 6ms - /tmp/npmTestPublished/node_modules/jslint-lite/.tmp/build/app/assets.example.html</tspan>

<tspan x="10" y="2826">jslint - 19ms - /tmp/npmTestPublished/node_modules/jslint-lite/.tmp/build/app/assets.example.js</tspan>

<tspan x="10" y="2842">jslint - 19ms - /tmp/npmTestPublished/node_modules/jslint-lite/.tmp/build/app/assets.jslint.css</tspan>

<tspan x="10" y="2858">jslint - 20ms - /tmp/npmTestPublished/node_modules/jslint-lite/.tmp/build/app/assets.jslint.html</tspan>

<tspan x="10" y="2874">jslint - 21ms - /tmp/npmTestPublished/node_modules/jslint-lite/.tmp/build/app/assets.test.js</tspan>

<tspan x="10" y="2890">jslint - 23ms - /tmp/npmTestPublished/node_modules/jslint-lite/.tmp/build/app/assets.utility2.ht\</tspan>
<tspan x="10" y="2906">ml</tspan>

<tspan x="10" y="2922">jslint - 22ms - /tmp/npmTestPublished/node_modules/jslint-lite/.tmp/build/app/index.html</tspan>

<tspan x="10" y="2938">jslint - 23ms - /tmp/npmTestPublished/node_modules/jslint-lite/.tmp/build/app/utility2.state.ini\</tspan>
<tspan x="10" y="2954">t.js</tspan>

<tspan x="10" y="2970">jslint - 299ms - /tmp/npmTestPublished/node_modules/jslint-lite/.tmp/build/app/assets.utility2.l\</tspan>
<tspan x="10" y="2986">ib.jslint.js</tspan>

<tspan x="10" y="3002">jslint - 339ms - /tmp/npmTestPublished/node_modules/jslint-lite/.tmp/build/app/assets.jslint.js</tspan>

<tspan x="10" y="3018">&gt; http-server listening on port 50144</tspan>

<tspan x="10" y="3034">[0819/220321.230184:INFO:CONSOLE(9)] "jslint inputCsslint1.css</tspan>

<tspan x="10" y="3050">  1 warning - zero-units - Values of 0 shouldn't have units specified.</tspan>

<tspan x="10" y="3066">    You don't need to specify units when a value is 0. // line 6, column 13</tspan>

<tspan x="10" y="3082">    margin: 0px;", source: http://127.0.0.1:34109/assets.example.js (9)</tspan>

<tspan x="10" y="3098">[0819/220321.243913:INFO:CONSOLE(9)] "jslint inputJslint1.js</tspan>

<tspan x="10" y="3114">  1 Undeclared 'console'. // line 5, column 2</tspan>

<tspan x="10" y="3130">    console.log(message);</tspan>

<tspan x="10" y="3146">  2 Undeclared 'console'. // line 6, column 2</tspan>

<tspan x="10" y="3162">    console.log(null);", source: http://127.0.0.1:34109/assets.example.js (9)</tspan>

<tspan x="10" y="3178">[0819/220321.286561:INFO:CONSOLE(9)] "testRunDefault - 30 ms - [browser test-case 1 of 6 passed]\</tspan>
<tspan x="10" y="3194"> - testCase_jslint0_coverage", source: http://127.0.0.1:34109/assets.example.js (9)</tspan>

<tspan x="10" y="3210">[0819/220321.379643:INFO:CONSOLE(9)] "testRunDefault - 123 ms - [browser test-case 2 of 6 passed\</tspan>
<tspan x="10" y="3226">] - testCase_jslint0_err", source: http://127.0.0.1:34109/assets.example.js (9)</tspan>

<tspan x="10" y="3242">[0819/220321.391596:INFO:CONSOLE(9)] "testRunDefault - 136 ms - [browser test-case 3 of 6 passed\</tspan>
<tspan x="10" y="3258">] - testCase_jslintAndPrintDir_coverage", source: http://127.0.0.1:34109/assets.example.js (9)</tspan>

<tspan x="10" y="3274">[0819/220321.405618:INFO:CONSOLE(9)] "testRunDefault - 150 ms - [browser test-case 4 of 6 passed\</tspan>
<tspan x="10" y="3290">] - testCase_jslintAndPrint_coverage", source: http://127.0.0.1:34109/assets.example.js (9)</tspan>

<tspan x="10" y="3306">[0819/220321.431923:INFO:CONSOLE(9)] "testRunDefault - 176 ms - [browser test-case 5 of 6 passed\</tspan>
<tspan x="10" y="3322">] - testCase_jslintAutofix_coverage", source: http://127.0.0.1:34109/assets.example.js (9)</tspan>

<tspan x="10" y="3338">[0819/220321.443776:INFO:CONSOLE(9)] "testRunDefault - 188 ms - [browser test-case 6 of 6 passed\</tspan>
<tspan x="10" y="3354">] - testCase_nop_default", source: http://127.0.0.1:34109/assets.example.js (9)</tspan>

<tspan x="10" y="3370">[0819/220321.460881:INFO:CONSOLE(9)] "domOnEventWindowOnloadTimeElapsed = 946", source: http://1\</tspan>
<tspan x="10" y="3386">27.0.0.1:34109/assets.example.js (9)</tspan>

<tspan x="10" y="3402">testRunDefault - 3913 ms - [node test-case 8 of 9 passed] - testCase_webpage_default</tspan>

<tspan x="10" y="3418">testRunDefault - 6262 ms - testCase pending - testCase_buildApp_default ...</tspan>

<tspan x="10" y="3434">testRunDefault - 7057 ms - [node test-case 9 of 9 passed] - testCase_buildApp_default</tspan>

<tspan x="10" y="3450">--------------|---------|---------|---------|---------|</tspan>

<tspan x="10" y="3466">File          | % Stmts | % Brchs | % Funcs | % Lines |</tspan>

<tspan x="10" y="3482">--------------|---------|---------|---------|---------|</tspan>

<tspan x="10" y="3498">All files     |   96.88 |   94.28 |   98.69 |   96.87 |</tspan>

<tspan x="10" y="3514">example.js    |     100 |     100 |     100 |     100 |</tspan>

<tspan x="10" y="3530">lib.jslint.js |   96.75 |   94.03 |   98.61 |   96.74 |</tspan>

<tspan x="10" y="3546">test.js       |     100 |     100 |     100 |     100 |</tspan>

<tspan x="10" y="3562">--------------|---------|---------|---------|---------|</tspan>

<tspan x="10" y="3578"></tspan>

<tspan x="10" y="3594">fsWriteFileWithMkdirpSync - /tmp/npmTestPublished/node_modules/jslint-lite/.tmp/build/coverage/c\</tspan>
<tspan x="10" y="3610">overage.txt</tspan>

<tspan x="10" y="3626">fsWriteFileWithMkdirpSync - /tmp/npmTestPublished/node_modules/jslint-lite/.tmp/build/coverage/i\</tspan>
<tspan x="10" y="3642">ndex.html</tspan>

<tspan x="10" y="3658">fsWriteFileWithMkdirpSync - /tmp/npmTestPublished/node_modules/jslint-lite/.tmp/build/coverage/e\</tspan>
<tspan x="10" y="3674">xample.js.html</tspan>

<tspan x="10" y="3690">fsWriteFileWithMkdirpSync - /tmp/npmTestPublished/node_modules/jslint-lite/.tmp/build/coverage/l\</tspan>
<tspan x="10" y="3706">ib.jslint.js.html</tspan>

<tspan x="10" y="3722">fsWriteFileWithMkdirpSync - /tmp/npmTestPublished/node_modules/jslint-lite/.tmp/build/coverage/t\</tspan>
<tspan x="10" y="3738">est.js.html</tspan>

<tspan x="10" y="3754">fsWriteFileWithMkdirpSync - /tmp/npmTestPublished/node_modules/jslint-lite/.tmp/build/coverage/c\</tspan>
<tspan x="10" y="3770">overage.all.html</tspan>

<tspan x="10" y="3786">fsWriteFileWithMkdirpSync - /tmp/npmTestPublished/node_modules/jslint-lite/.tmp/build/coverage/c\</tspan>
<tspan x="10" y="3802">overage.json</tspan>

<tspan x="10" y="3818">fsWriteFileWithMkdirpSync - /tmp/npmTestPublished/node_modules/jslint-lite/.tmp/build/coverage/c\</tspan>
<tspan x="10" y="3834">overage.include.json</tspan>

<tspan x="10" y="3850">fsWriteFileWithMkdirpSync - /tmp/npmTestPublished/node_modules/jslint-lite/.tmp/build/coverage/c\</tspan>
<tspan x="10" y="3866">overage.badge.svg</tspan>

<tspan x="10" y="3882">istanbul - created coverage file /tmp/npmTestPublished/node_modules/jslint-lite/.tmp/build/cover\</tspan>
<tspan x="10" y="3898">age/index.html</tspan>

<tspan x="10" y="3914"></tspan>

<tspan x="10" y="3930">-------------------------------------------------------</tspan>

<tspan x="10" y="3946">| test-report - npmTestPublished - browser - / - Mozilla/5.0 (X11; Linux x86_64) AppleWebKit/537\</tspan>
<tspan x="10" y="3962">.36 (KHTML, like Gecko) HeadlessChrome/84.0.4147.135 Safari/537.36 - 2020-08-19T22:03:20.736Z</tspan>

<tspan x="10" y="3978">|     199 ms            0 failed        6 passed      |</tspan>

<tspan x="10" y="3994">-------------------------------------------------------</tspan>

<tspan x="10" y="4010">| test-report - npmTestPublished - node - linux v14.8.0 - 2020-08-19T22:03:16.020Z</tspan>

<tspan x="10" y="4026">|    7058 ms            0 failed        9 passed      |</tspan>

<tspan x="10" y="4042">-------------------------------------------------------</tspan>

<tspan x="10" y="4058"></tspan>

<tspan x="10" y="4074">fsWriteFileWithMkdirpSync - /tmp/npmTestPublished/node_modules/jslint-lite/.tmp/build/test-repor\</tspan>
<tspan x="10" y="4090">t.html</tspan>

<tspan x="10" y="4106">fsWriteFileWithMkdirpSync - /tmp/npmTestPublished/node_modules/jslint-lite/.tmp/build/build.badg\</tspan>
<tspan x="10" y="4122">e.svg</tspan>

<tspan x="10" y="4138">fsWriteFileWithMkdirpSync - /tmp/npmTestPublished/node_modules/jslint-lite/.tmp/build/test-repor\</tspan>
<tspan x="10" y="4154">t.badge.svg</tspan>

<tspan x="10" y="4170"></tspan>

<tspan x="10" y="4186">npmTestPublished - 0 failed tests</tspan>

<tspan x="10" y="4202"></tspan>

<tspan x="10" y="4218"></tspan>

<tspan x="10" y="4234">\x1b[35m[MODE_BUILD=npmTestPublished]\x1b[0m - 2020-08-19T22:03:25.294Z - EXIT_CODE - 0</tspan>

</text>
</svg>
