<svg height="4078" width="720" xmlns="http://www.w3.org/2000/svg">
<rect height="4078" fill="#555" width="720"></rect>
<text fill="#7f7" font-family="Courier New" font-size="12" xml:space="preserve">
<tspan x="10" y="26"></tspan>

<tspan x="10" y="42">\x1b[35m[MODE_BUILD=npmTestPublished]\x1b[0m - 2020-06-02T17:53:30.202Z - npm-testing /tmp/npmTe\</tspan>
<tspan x="10" y="58">stPublished/node_modules/jslint-lite</tspan>

<tspan x="10" y="74"></tspan>

<tspan x="10" y="90"></tspan>

<tspan x="10" y="106">istanbul - covering $ /home/travis/.nvm/versions/node/v14.3.0/bin/node /tmp/npmTestPublished/nod\</tspan>
<tspan x="10" y="122">e_modules/jslint-lite/test.js</tspan>

<tspan x="10" y="138">&gt; jslint - 289ms /tmp/npmTestPublished/node_modules/jslint-lite/README.md</tspan>

<tspan x="10" y="154">jslint - 1ms /tmp/npmTestPublished/node_modules/jslint-lite/npm_scripts.sh</tspan>

<tspan x="10" y="170">--- /tmp/npmTestPublished/node_modules/jslint-lite/package.json.autofix.old	2020-06-02 17:53:30.\</tspan>
<tspan x="10" y="186">905976540 +0000</tspan>

<tspan x="10" y="202">+++ /tmp/npmTestPublished/node_modules/jslint-lite/package.json	2020-06-02 17:53:30.905976540 +0\</tspan>
<tspan x="10" y="218">000</tspan>

<tspan x="10" y="234">@@ -1,76 +1,76 @@</tspan>

<tspan x="10" y="250"> {</tspan>

<tspan x="10" y="266">-  "_from": "jslint-lite",</tspan>

<tspan x="10" y="282">-  "_id": "jslint-lite@2020.5.31",</tspan>

<tspan x="10" y="298">-  "_inBundle": false,</tspan>

<tspan x="10" y="314">-  "_integrity": "sha512-n/b/9PGGiwaLv001a7zXgBi17/LztSG+FztONd9qfgnmdTBXUbPgA7Lqxgj1LNkGpfXaQvs\</tspan>
<tspan x="10" y="330">m6HfriBTc6c3qZg==",</tspan>

<tspan x="10" y="346">-  "_location": "/jslint-lite",</tspan>

<tspan x="10" y="362">-  "_phantomChildren": {},</tspan>

<tspan x="10" y="378">-  "_requested": {</tspan>

<tspan x="10" y="394">-    "type": "tag",</tspan>

<tspan x="10" y="410">-    "registry": true,</tspan>

<tspan x="10" y="426">-    "raw": "jslint-lite",</tspan>

<tspan x="10" y="442">+    "_from": "jslint-lite",</tspan>

<tspan x="10" y="458">+    "_id": "jslint-lite@2020.5.31",</tspan>

<tspan x="10" y="474">+    "_inBundle": false,</tspan>

<tspan x="10" y="490">+    "_integrity": "sha512-n/b/9PGGiwaLv001a7zXgBi17/LztSG+FztONd9qfgnmdTBXUbPgA7Lqxgj1LNkGpfXaQ\</tspan>
<tspan x="10" y="506">vsm6HfriBTc6c3qZg==",</tspan>

<tspan x="10" y="522">+    "_location": "/jslint-lite",</tspan>

<tspan x="10" y="538">+    "_phantomChildren": {},</tspan>

<tspan x="10" y="554">+    "_requested": {</tspan>

<tspan x="10" y="570">+        "escapedName": "jslint-lite",</tspan>

<tspan x="10" y="586">+        "fetchSpec": "latest",</tspan>

<tspan x="10" y="602">+        "name": "jslint-lite",</tspan>

<tspan x="10" y="618">+        "raw": "jslint-lite",</tspan>

<tspan x="10" y="634">+        "rawSpec": "",</tspan>

<tspan x="10" y="650">+        "registry": true,</tspan>

<tspan x="10" y="666">+        "saveSpec": null,</tspan>

<tspan x="10" y="682">+        "type": "tag"</tspan>

<tspan x="10" y="698">+    },</tspan>

<tspan x="10" y="714">+    "_requiredBy_": [</tspan>

<tspan x="10" y="730">+        "#USER",</tspan>

<tspan x="10" y="746">+        "/"</tspan>

<tspan x="10" y="762">+    ],</tspan>

<tspan x="10" y="778">+    "_resolved": "https://registry.npmjs.org/jslint-lite/-/jslint-lite-2020.5.31.tgz",</tspan>

<tspan x="10" y="794">+    "_shasum": "0c7ce5748296425e3c6dcf00192e430a9db3445b",</tspan>

<tspan x="10" y="810">+    "_spec": "jslint-lite",</tspan>

<tspan x="10" y="826">+    "_where": "/tmp/npmTestPublished",</tspan>

<tspan x="10" y="842">+    "author": {</tspan>

<tspan x="10" y="858">+        "email": "kaizhu256@gmail.com",</tspan>

<tspan x="10" y="874">+        "name": "kai zhu"</tspan>

<tspan x="10" y="890">+    },</tspan>

<tspan x="10" y="906">+    "bin": {</tspan>

<tspan x="10" y="922">+        "jslint-lite": "lib.jslint.js"</tspan>

<tspan x="10" y="938">+    },</tspan>

<tspan x="10" y="954">+    "bugs": {</tspan>

<tspan x="10" y="970">+        "url": "https://github.com/kaizhu256/node-jslint-lite/issues"</tspan>

<tspan x="10" y="986">+    },</tspan>

<tspan x="10" y="1002">+    "bundleDependencies": false,</tspan>

<tspan x="10" y="1018">+    "deprecated": false,</tspan>

<tspan x="10" y="1034">+    "description": "this zero-dependency package will provide browser-compatible versions of js\</tspan>
<tspan x="10" y="1050">lint (v2020.3.28) and csslint (v2018.2.25), with a working web-demo",</tspan>

<tspan x="10" y="1066">+    "devDependencies": {</tspan>

<tspan x="10" y="1082">+        "utility2": "github:kaizhu256/node-utility2#alpha"</tspan>

<tspan x="10" y="1098">+    },</tspan>

<tspan x="10" y="1114">+    "engines": {</tspan>

<tspan x="10" y="1130">+        "node": "&gt;=12.0"</tspan>

<tspan x="10" y="1146">+    },</tspan>

<tspan x="10" y="1162">+    "fileCount": 8,</tspan>

<tspan x="10" y="1178">+    "homepage": "https://github.com/kaizhu256/node-jslint-lite",</tspan>

<tspan x="10" y="1194">+    "keywords": [</tspan>

<tspan x="10" y="1210">+        "csslint",</tspan>

<tspan x="10" y="1226">+        "jslint"</tspan>

<tspan x="10" y="1242">+    ],</tspan>

<tspan x="10" y="1258">+    "license": "MIT",</tspan>

<tspan x="10" y="1274">+    "main": "lib.jslint.js",</tspan>

<tspan x="10" y="1290">     "name": "jslint-lite",</tspan>

<tspan x="10" y="1306">-    "escapedName": "jslint-lite",</tspan>

<tspan x="10" y="1322">-    "rawSpec": "",</tspan>

<tspan x="10" y="1338">-    "saveSpec": null,</tspan>

<tspan x="10" y="1354">-    "fetchSpec": "latest"</tspan>

<tspan x="10" y="1370">-  },</tspan>

<tspan x="10" y="1386">-  "_requiredBy_": [</tspan>

<tspan x="10" y="1402">-    "#USER",</tspan>

<tspan x="10" y="1418">-    "/"</tspan>

<tspan x="10" y="1434">-  ],</tspan>

<tspan x="10" y="1450">-  "_resolved": "https://registry.npmjs.org/jslint-lite/-/jslint-lite-2020.5.31.tgz",</tspan>

<tspan x="10" y="1466">-  "_shasum": "0c7ce5748296425e3c6dcf00192e430a9db3445b",</tspan>

<tspan x="10" y="1482">-  "_spec": "jslint-lite",</tspan>

<tspan x="10" y="1498">-  "_where": "/tmp/npmTestPublished",</tspan>

<tspan x="10" y="1514">-  "author": {</tspan>

<tspan x="10" y="1530">-    "name": "kai zhu",</tspan>

<tspan x="10" y="1546">-    "email": "kaizhu256@gmail.com"</tspan>

<tspan x="10" y="1562">-  },</tspan>

<tspan x="10" y="1578">-  "bin": {</tspan>

<tspan x="10" y="1594">-    "jslint-lite": "lib.jslint.js"</tspan>

<tspan x="10" y="1610">-  },</tspan>

<tspan x="10" y="1626">-  "bugs": {</tspan>

<tspan x="10" y="1642">-    "url": "https://github.com/kaizhu256/node-jslint-lite/issues"</tspan>

<tspan x="10" y="1658">-  },</tspan>

<tspan x="10" y="1674">-  "bundleDependencies": false,</tspan>

<tspan x="10" y="1690">-  "deprecated": false,</tspan>

<tspan x="10" y="1706">-  "description": "this zero-dependency package will provide browser-compatible versions of jsli\</tspan>
<tspan x="10" y="1722">nt (v2020.3.28) and csslint (v2018.2.25), with a working web-demo",</tspan>

<tspan x="10" y="1738">-  "devDependencies": {</tspan>

<tspan x="10" y="1754">-    "utility2": "github:kaizhu256/node-utility2#alpha"</tspan>

<tspan x="10" y="1770">-  },</tspan>

<tspan x="10" y="1786">-  "engines": {</tspan>

<tspan x="10" y="1802">-    "node": "&gt;=12.0"</tspan>

<tspan x="10" y="1818">-  },</tspan>

<tspan x="10" y="1834">-  "fileCount": 8,</tspan>

<tspan x="10" y="1850">-  "homepage": "https://github.com/kaizhu256/node-jslint-lite",</tspan>

<tspan x="10" y="1866">-  "keywords": [</tspan>

<tspan x="10" y="1882">-    "csslint",</tspan>

<tspan x="10" y="1898">-    "jslint"</tspan>

<tspan x="10" y="1914">-  ],</tspan>

<tspan x="10" y="1930">-  "license": "MIT",</tspan>

<tspan x="10" y="1946">-  "main": "lib.jslint.js",</tspan>

<tspan x="10" y="1962">-  "name": "jslint-lite",</tspan>

<tspan x="10" y="1978">-  "nameAliasPublish": "csslint-lite kslint",</tspan>

<tspan x="10" y="1994">-  "nameLib": "jslint",</tspan>

<tspan x="10" y="2010">-  "nameOriginal": "jslint-lite",</tspan>

<tspan x="10" y="2026">-  "os": [</tspan>

<tspan x="10" y="2042">-    "darwin",</tspan>

<tspan x="10" y="2058">-    "linux"</tspan>

<tspan x="10" y="2074">-  ],</tspan>

<tspan x="10" y="2090">-  "repository": {</tspan>

<tspan x="10" y="2106">-    "type": "git",</tspan>

<tspan x="10" y="2122">-    "url": "git+https://github.com/kaizhu256/node-jslint-lite.git"</tspan>

<tspan x="10" y="2138">-  },</tspan>

<tspan x="10" y="2154">-  "scripts": {</tspan>

<tspan x="10" y="2170">-    "build-ci": "./npm_scripts.sh",</tspan>

<tspan x="10" y="2186">-    "env": "env",</tspan>

<tspan x="10" y="2202">-    "eval": "./npm_scripts.sh",</tspan>

<tspan x="10" y="2218">-    "heroku-postbuild": "./npm_scripts.sh",</tspan>

<tspan x="10" y="2234">-    "postinstall": "./npm_scripts.sh",</tspan>

<tspan x="10" y="2250">-    "start": "./npm_scripts.sh",</tspan>

<tspan x="10" y="2266">-    "test": "./npm_scripts.sh",</tspan>

<tspan x="10" y="2282">-    "utility2": "./npm_scripts.sh"</tspan>

<tspan x="10" y="2298">-  },</tspan>

<tspan x="10" y="2314">-  "version": "2020.5.31"</tspan>

<tspan x="10" y="2330">+    "nameAliasPublish": "csslint-lite kslint",</tspan>

<tspan x="10" y="2346">+    "nameLib": "jslint",</tspan>

<tspan x="10" y="2362">+    "nameOriginal": "jslint-lite",</tspan>

<tspan x="10" y="2378">+    "os": [</tspan>

<tspan x="10" y="2394">+        "darwin",</tspan>

<tspan x="10" y="2410">+        "linux"</tspan>

<tspan x="10" y="2426">+    ],</tspan>

<tspan x="10" y="2442">+    "repository": {</tspan>

<tspan x="10" y="2458">+        "type": "git",</tspan>

<tspan x="10" y="2474">+        "url": "git+https://github.com/kaizhu256/node-jslint-lite.git"</tspan>

<tspan x="10" y="2490">+    },</tspan>

<tspan x="10" y="2506">+    "scripts": {</tspan>

<tspan x="10" y="2522">+        "build-ci": "./npm_scripts.sh",</tspan>

<tspan x="10" y="2538">+        "env": "env",</tspan>

<tspan x="10" y="2554">+        "eval": "./npm_scripts.sh",</tspan>

<tspan x="10" y="2570">+        "heroku-postbuild": "./npm_scripts.sh",</tspan>

<tspan x="10" y="2586">+        "postinstall": "./npm_scripts.sh",</tspan>

<tspan x="10" y="2602">+        "start": "./npm_scripts.sh",</tspan>

<tspan x="10" y="2618">+        "test": "./npm_scripts.sh",</tspan>

<tspan x="10" y="2634">+        "utility2": "./npm_scripts.sh"</tspan>

<tspan x="10" y="2650">+    },</tspan>

<tspan x="10" y="2666">+    "version": "2020.5.31"</tspan>

<tspan x="10" y="2682"> }</tspan>

<tspan x="10" y="2698">jslint-autofix - modified and saved file /tmp/npmTestPublished/node_modules/jslint-lite/package.\</tspan>
<tspan x="10" y="2714">json</tspan>

<tspan x="10" y="2730">jslint - 32ms /tmp/npmTestPublished/node_modules/jslint-lite/package.json</tspan>

<tspan x="10" y="2746">jslint - 126ms /tmp/npmTestPublished/node_modules/jslint-lite/test.js</tspan>

<tspan x="10" y="2762">jslint - 279ms /tmp/npmTestPublished/node_modules/jslint-lite/lib.jslint.js</tspan>

<tspan x="10" y="2778">http-server listening on port 33394</tspan>

<tspan x="10" y="2794">testRunDefault - 27 ms - [node test-case 1 of 8 passed] - testCase_buildApidoc_default</tspan>

<tspan x="10" y="2810">testRunDefault - 82 ms - [node test-case 2 of 8 passed] - testCase_buildLib_default</tspan>

<tspan x="10" y="2826">testRunDefault - 87 ms - [node test-case 3 of 8 passed] - testCase_buildReadme_default</tspan>

<tspan x="10" y="2842">testRunDefault - 87 ms - [node test-case 4 of 8 passed] - testCase_buildTest_default</tspan>

<tspan x="10" y="2858">testRunDefault - 259 ms - [node test-case 5 of 8 passed] - testCase_jslintAndPrint_default</tspan>

<tspan x="10" y="2874">testRunDefault - 259 ms - [node test-case 6 of 8 passed] - testCase_nop_default</tspan>

<tspan x="10" y="2890"></tspan>

<tspan x="10" y="2906">DevTools listening on ws://127.0.0.1:36371/devtools/browser/1489af1e-cacb-4066-9f17-7850ae863eb2</tspan>

<tspan x="10" y="2922">[0602/175333.708447:INFO:CONSOLE(8)] "jslint inputCsslint1.css</tspan>

<tspan x="10" y="2938">  1 warning - zero-units - Values of 0 shouldn't have units specified.</tspan>

<tspan x="10" y="2954">    You don't need to specify units when a value is 0. // line 6, column 13</tspan>

<tspan x="10" y="2970">    margin: 0px;", source: http://127.0.0.1:33394/assets.example.js (8)</tspan>

<tspan x="10" y="2986">[0602/175333.738036:INFO:CONSOLE(8)] "jslint inputJslint1.js</tspan>

<tspan x="10" y="3002">  1 Undeclared 'console'. // line 5, column 1</tspan>

<tspan x="10" y="3018">    console.log(message);</tspan>

<tspan x="10" y="3034">  2 Undeclared 'console'. // line 6, column 1</tspan>

<tspan x="10" y="3050">    console.log(null);", source: http://127.0.0.1:33394/assets.example.js (8)</tspan>

<tspan x="10" y="3066">http-server listening on port 62483</tspan>

<tspan x="10" y="3082">[0602/175334.046118:INFO:CONSOLE(8)] "testRunDefault - 274 ms - [browser test-case 1 of 2 passed\</tspan>
<tspan x="10" y="3098">] - testCase_jslintAndPrint_default", source: http://127.0.0.1:33394/assets.example.js (8)</tspan>

<tspan x="10" y="3114">[0602/175334.062065:INFO:CONSOLE(8)] "testRunDefault - 290 ms - [browser test-case 2 of 2 passed\</tspan>
<tspan x="10" y="3130">] - testCase_nop_default", source: http://127.0.0.1:33394/assets.example.js (8)</tspan>

<tspan x="10" y="3146">[0602/175334.151089:INFO:CONSOLE(8)] "domOnEventWindowOnloadTimeElapsed = 849", source: http://1\</tspan>
<tspan x="10" y="3162">27.0.0.1:33394/assets.example.js (8)</tspan>

<tspan x="10" y="3178">testRunDefault - 1951 ms - [node test-case 7 of 8 passed] - testCase_webpage_default</tspan>

<tspan x="10" y="3194">testRunDefault - 6029 ms - testCase pending - testCase_buildApp_default ...</tspan>

<tspan x="10" y="3210">testRunDefault - 6106 ms - [node test-case 8 of 8 passed] - testCase_buildApp_default</tspan>

<tspan x="10" y="3226">----------------|---------|---------|---------|---------|</tspan>

<tspan x="10" y="3242">File            | % Stmts | % Brchs | % Funcs | % Lines |</tspan>

<tspan x="10" y="3258">----------------|---------|---------|---------|---------|</tspan>

<tspan x="10" y="3274">All files       |   96.45 |   96.24 |      97 |   96.44 |</tspan>

<tspan x="10" y="3290">jslint-lite/    |   96.45 |   96.24 |      97 |   96.44 |</tspan>

<tspan x="10" y="3306">  example.js    |   89.94 |   83.33 |   95.24 |   89.94 |</tspan>

<tspan x="10" y="3322">  lib.jslint.js |   96.54 |   96.49 |   96.97 |   96.53 |</tspan>

<tspan x="10" y="3338">  test.js       |     100 |     100 |     100 |     100 |</tspan>

<tspan x="10" y="3354">----------------|---------|---------|---------|---------|</tspan>

<tspan x="10" y="3370"></tspan>

<tspan x="10" y="3386">wrote file - coverage-report - /tmp/npmTestPublished/node_modules/jslint-lite/tmp/build/coverage\</tspan>
<tspan x="10" y="3402">.html/coverage.txt</tspan>

<tspan x="10" y="3418">wrote file - coverage-report - /tmp/npmTestPublished/node_modules/jslint-lite/tmp/build/coverage\</tspan>
<tspan x="10" y="3434">.html/index.html</tspan>

<tspan x="10" y="3450">wrote file - coverage-report - /tmp/npmTestPublished/node_modules/jslint-lite/tmp/build/coverage\</tspan>
<tspan x="10" y="3466">.html/jslint-lite/index.html</tspan>

<tspan x="10" y="3482">wrote file - coverage-report - /tmp/npmTestPublished/node_modules/jslint-lite/tmp/build/coverage\</tspan>
<tspan x="10" y="3498">.html/jslint-lite/example.js.html</tspan>

<tspan x="10" y="3514">wrote file - coverage-report - /tmp/npmTestPublished/node_modules/jslint-lite/tmp/build/coverage\</tspan>
<tspan x="10" y="3530">.html/jslint-lite/lib.jslint.js.html</tspan>

<tspan x="10" y="3546">wrote file - coverage-report - /tmp/npmTestPublished/node_modules/jslint-lite/tmp/build/coverage\</tspan>
<tspan x="10" y="3562">.html/jslint-lite/test.js.html</tspan>

<tspan x="10" y="3578">wrote file - coverage-report - /tmp/npmTestPublished/node_modules/jslint-lite/tmp/build/coverage\</tspan>
<tspan x="10" y="3594">.html/coverage.all.html</tspan>

<tspan x="10" y="3610">wrote file - coverage-report - /tmp/npmTestPublished/node_modules/jslint-lite/tmp/build/coverage\</tspan>
<tspan x="10" y="3626">.html/coverage.json</tspan>

<tspan x="10" y="3642">wrote file - coverage-report - /tmp/npmTestPublished/node_modules/jslint-lite/tmp/build/coverage\</tspan>
<tspan x="10" y="3658">.html/coverage.include.json</tspan>

<tspan x="10" y="3674">wrote file - coverage-report - /tmp/npmTestPublished/node_modules/jslint-lite/tmp/build/coverage\</tspan>
<tspan x="10" y="3690">.badge.svg</tspan>

<tspan x="10" y="3706">istanbul - created coverage file /tmp/npmTestPublished/node_modules/jslint-lite/tmp/build/covera\</tspan>
<tspan x="10" y="3722">ge.html/index.html</tspan>

<tspan x="10" y="3738"></tspan>

<tspan x="10" y="3754">-------------------------------------------------------</tspan>

<tspan x="10" y="3770">| test-report - npmTestPublished - browser - / - Mozilla/5.0 (X11; Linux x86_64) AppleWebKit/537\</tspan>
<tspan x="10" y="3786">.36 (KHTML, like Gecko) HeadlessChrome/83.0.4103.61 Safari/537.36 - 2020-06-02T17:53:33.371Z</tspan>

<tspan x="10" y="3802">|     293 ms            0 failed        2 passed      |</tspan>

<tspan x="10" y="3818">-------------------------------------------------------</tspan>

<tspan x="10" y="3834">| test-report - npmTestPublished - node - linux v14.3.0 - 2020-06-02T17:53:30.365Z</tspan>

<tspan x="10" y="3850">|    6106 ms            0 failed        8 passed      |</tspan>

<tspan x="10" y="3866">-------------------------------------------------------</tspan>

<tspan x="10" y="3882"></tspan>

<tspan x="10" y="3898">wrote file - test-report - /tmp/npmTestPublished/node_modules/jslint-lite/tmp/build/test-report.\</tspan>
<tspan x="10" y="3914">html</tspan>

<tspan x="10" y="3930">wrote file - test-report - /tmp/npmTestPublished/node_modules/jslint-lite/tmp/build/build.badge.\</tspan>
<tspan x="10" y="3946">svg</tspan>

<tspan x="10" y="3962">wrote file - test-report - /tmp/npmTestPublished/node_modules/jslint-lite/tmp/build/test-report.\</tspan>
<tspan x="10" y="3978">badge.svg</tspan>

<tspan x="10" y="3994"></tspan>

<tspan x="10" y="4010">npmTestPublished - 0 failed tests</tspan>

<tspan x="10" y="4026"></tspan>

<tspan x="10" y="4042"></tspan>

<tspan x="10" y="4058">\x1b[35m[MODE_BUILD=npmTestPublished]\x1b[0m - 2020-06-02T17:53:38.967Z - EXIT_CODE - 0</tspan>

</text>
</svg>
