<svg height="11598" width="720" xmlns="http://www.w3.org/2000/svg">
<rect height="11598" fill="#555" width="720"></rect>
<text fill="#7f7" font-family="Courier New" font-size="12" xml:space="preserve">
<tspan x="10" y="26"></tspan>

<tspan x="10" y="42">\x1b[35m[MODE_BUILD=npmTestPublished]\x1b[0m - 2020-08-19T20:45:38.049Z - npm-testing /tmp/npmTe\</tspan>
<tspan x="10" y="58">stPublished/node_modules/jslint-lite</tspan>

<tspan x="10" y="74"></tspan>

<tspan x="10" y="90"></tspan>

<tspan x="10" y="106">istanbul - covering $ /home/travis/.nvm/versions/node/v14.8.0/bin/node /tmp/npmTestPublished/nod\</tspan>
<tspan x="10" y="122">e_modules/jslint-lite/test.js</tspan>

<tspan x="10" y="138">&gt; jslint - 3ms - /tmp/npmTestPublished/node_modules/jslint-lite/README.md</tspan>

<tspan x="10" y="154">jslint - 16ms - /tmp/npmTestPublished/node_modules/jslint-lite/npm_scripts.sh</tspan>

<tspan x="10" y="170">jslint - 18ms - /tmp/npmTestPublished/node_modules/jslint-lite/package.json</tspan>

<tspan x="10" y="186">jslint - 73ms - /tmp/npmTestPublished/node_modules/jslint-lite/test.js</tspan>

<tspan x="10" y="202">jslint - 312ms - /tmp/npmTestPublished/node_modules/jslint-lite/lib.jslint.js</tspan>

<tspan x="10" y="218">http-server listening on port 35604</tspan>

<tspan x="10" y="234">testRunDefault - 985 ms - [node test-case 1 of 9 passed] - testCase_jslint0_coverage</tspan>

<tspan x="10" y="250">testRunDefault - 1041 ms - [node test-case 2 of 9 passed] - testCase_jslint0_err</tspan>

<tspan x="10" y="266">testRunDefault - 1047 ms - [node test-case 3 of 9 passed] - testCase_jslintAndPrint_coverage</tspan>

<tspan x="10" y="282">testRunDefault - 1086 ms - [node test-case 4 of 9 passed] - testCase_jslintAutofix_coverage</tspan>

<tspan x="10" y="298">testRunDefault - 1086 ms - [node test-case 5 of 9 passed] - testCase_nop_default</tspan>

<tspan x="10" y="314">--- /tmp/npmTestPublished/node_modules/jslint-lite/README.md.autofix.old	2020-08-19 20:45:42.197\</tspan>
<tspan x="10" y="330">314616 +0000</tspan>

<tspan x="10" y="346">+++ /tmp/npmTestPublished/node_modules/jslint-lite/README.md	2020-08-19 20:45:42.197314616 +0000</tspan>

<tspan x="10" y="362">@@ -132,10 +132,12 @@</tspan>

<tspan x="10" y="378"> // run shared js-env code - init-local</tspan>

<tspan x="10" y="394"> (function () {</tspan>

<tspan x="10" y="410">     "use strict";</tspan>

<tspan x="10" y="426">-    let consoleError;</tspan>

<tspan x="10" y="442">+    let isBrowser;</tspan>

<tspan x="10" y="458">+    let isWebWorker;</tspan>

<tspan x="10" y="474">     let local;</tspan>

<tspan x="10" y="490">     // init debugInline</tspan>

<tspan x="10" y="506">     if (!globalThis.debugInline) {</tspan>

<tspan x="10" y="522">+        let consoleError;</tspan>

<tspan x="10" y="538">         consoleError = console.error;</tspan>

<tspan x="10" y="554">         globalThis.debugInline = function (...argList) {</tspan>

<tspan x="10" y="570">         /*</tspan>

<tspan x="10" y="586">@@ -148,27 +150,22 @@</tspan>

<tspan x="10" y="602">             return argList[0];</tspan>

<tspan x="10" y="618">         };</tspan>

<tspan x="10" y="634">     }</tspan>

<tspan x="10" y="650">-    // init local</tspan>

<tspan x="10" y="666">-    local = {};</tspan>

<tspan x="10" y="682">-    local.local = local;</tspan>

<tspan x="10" y="698">-    globalThis.globalLocal = local;</tspan>

<tspan x="10" y="714">     // init isBrowser</tspan>

<tspan x="10" y="730">-    local.isBrowser = (</tspan>

<tspan x="10" y="746">+    isBrowser = (</tspan>

<tspan x="10" y="762">         typeof globalThis.XMLHttpRequest === "function"</tspan>

<tspan x="10" y="778">         &amp;&amp; globalThis.navigator</tspan>

<tspan x="10" y="794">         &amp;&amp; typeof globalThis.navigator.userAgent === "string"</tspan>

<tspan x="10" y="810">     );</tspan>

<tspan x="10" y="826">     // init isWebWorker</tspan>

<tspan x="10" y="842">-    local.isWebWorker = (</tspan>

<tspan x="10" y="858">-        local.isBrowser &amp;&amp; typeof globalThis.importScripts === "function"</tspan>

<tspan x="10" y="874">+    isWebWorker = (</tspan>

<tspan x="10" y="890">+        isBrowser &amp;&amp; typeof globalThis.importScripts === "function"</tspan>

<tspan x="10" y="906">     );</tspan>

<tspan x="10" y="922">     // init function</tspan>

<tspan x="10" y="938">-    local.assertJsonEqual = function (aa, bb) {</tspan>

<tspan x="10" y="954">+    function assertJsonEqual(aa, bb) {</tspan>

<tspan x="10" y="970">     /*</tspan>

<tspan x="10" y="986">      * this function will assert JSON.stringify(&lt;aa&gt;) === JSON.stringify(&lt;bb&gt;)</tspan>

<tspan x="10" y="1002">      */</tspan>

<tspan x="10" y="1018">-        let objectDeepCopyWithKeysSorted;</tspan>

<tspan x="10" y="1034">-        objectDeepCopyWithKeysSorted = function (obj) {</tspan>

<tspan x="10" y="1050">+        function objectDeepCopyWithKeysSorted(obj) {</tspan>

<tspan x="10" y="1066">         /*</tspan>

<tspan x="10" y="1082">          * this function will recursively deep-copy &lt;obj&gt; with keys sorted</tspan>

<tspan x="10" y="1098">          */</tspan>

<tspan x="10" y="1114">@@ -186,14 +183,14 @@</tspan>

<tspan x="10" y="1130">                 sorted[key] = objectDeepCopyWithKeysSorted(obj[key]);</tspan>

<tspan x="10" y="1146">             });</tspan>

<tspan x="10" y="1162">             return sorted;</tspan>

<tspan x="10" y="1178">-        };</tspan>

<tspan x="10" y="1194">+        }</tspan>

<tspan x="10" y="1210">         aa = JSON.stringify(objectDeepCopyWithKeysSorted(aa));</tspan>

<tspan x="10" y="1226">         bb = JSON.stringify(objectDeepCopyWithKeysSorted(bb));</tspan>

<tspan x="10" y="1242">         if (aa !== bb) {</tspan>

<tspan x="10" y="1258">             throw new Error(JSON.stringify(aa) + " !== " + JSON.stringify(bb));</tspan>

<tspan x="10" y="1274">         }</tspan>

<tspan x="10" y="1290">-    };</tspan>

<tspan x="10" y="1306">-    local.assertOrThrow = function (passed, msg) {</tspan>

<tspan x="10" y="1322">+    }</tspan>

<tspan x="10" y="1338">+    function assertOrThrow(passed, msg) {</tspan>

<tspan x="10" y="1354">     /*</tspan>

<tspan x="10" y="1370">      * this function will throw &lt;msg&gt; if &lt;passed&gt; is falsy</tspan>

<tspan x="10" y="1386">      */</tspan>

<tspan x="10" y="1402">@@ -216,8 +213,8 @@</tspan>

<tspan x="10" y="1418">                 : JSON.stringify(msg, undefined, 4)</tspan>

<tspan x="10" y="1434">             )</tspan>

<tspan x="10" y="1450">         );</tspan>

<tspan x="10" y="1466">-    };</tspan>

<tspan x="10" y="1482">-    local.coalesce = function (...argList) {</tspan>

<tspan x="10" y="1498">+    }</tspan>

<tspan x="10" y="1514">+    function coalesce(...argList) {</tspan>

<tspan x="10" y="1530">     /*</tspan>

<tspan x="10" y="1546">      * this function will coalesce null, undefined, or "" in &lt;argList&gt;</tspan>

<tspan x="10" y="1562">      */</tspan>

<tspan x="10" y="1578">@@ -232,20 +229,20 @@</tspan>

<tspan x="10" y="1594">             ii += 1;</tspan>

<tspan x="10" y="1610">         }</tspan>

<tspan x="10" y="1626">         return arg;</tspan>

<tspan x="10" y="1642">-    };</tspan>

<tspan x="10" y="1658">-    local.identity = function (val) {</tspan>

<tspan x="10" y="1674">+    }</tspan>

<tspan x="10" y="1690">+    function identity(val) {</tspan>

<tspan x="10" y="1706">     /*</tspan>

<tspan x="10" y="1722">      * this function will return &lt;val&gt;</tspan>

<tspan x="10" y="1738">      */</tspan>

<tspan x="10" y="1754">         return val;</tspan>

<tspan x="10" y="1770">-    };</tspan>

<tspan x="10" y="1786">-    local.nop = function () {</tspan>

<tspan x="10" y="1802">+    }</tspan>

<tspan x="10" y="1818">+    function nop() {</tspan>

<tspan x="10" y="1834">     /*</tspan>

<tspan x="10" y="1850">      * this function will do nothing</tspan>

<tspan x="10" y="1866">      */</tspan>

<tspan x="10" y="1882">         return;</tspan>

<tspan x="10" y="1898">-    };</tspan>

<tspan x="10" y="1914">-    local.objectAssignDefault = function (tgt = {}, src = {}, depth = 0) {</tspan>

<tspan x="10" y="1930">+    }</tspan>

<tspan x="10" y="1946">+    function objectAssignDefault(tgt = {}, src = {}, depth = 0) {</tspan>

<tspan x="10" y="1962">     /*</tspan>

<tspan x="10" y="1978">      * this function will if items from &lt;tgt&gt; are null, undefined, or "",</tspan>

<tspan x="10" y="1994">      * then overwrite them with items from &lt;src&gt;</tspan>

<tspan x="10" y="2010">@@ -272,15 +269,15 @@</tspan>

<tspan x="10" y="2026">         };</tspan>

<tspan x="10" y="2042">         recurse(tgt, src, depth | 0);</tspan>

<tspan x="10" y="2058">         return tgt;</tspan>

<tspan x="10" y="2074">-    };</tspan>

<tspan x="10" y="2090">-    local.onErrorThrow = function (err) {</tspan>

<tspan x="10" y="2106">+    }</tspan>

<tspan x="10" y="2122">+    function onErrorThrow(err) {</tspan>

<tspan x="10" y="2138">     /*</tspan>

<tspan x="10" y="2154">      * this function will throw &lt;err&gt; if exists</tspan>

<tspan x="10" y="2170">      */</tspan>

<tspan x="10" y="2186">         if (err) {</tspan>

<tspan x="10" y="2202">             throw err;</tspan>

<tspan x="10" y="2218">         }</tspan>

<tspan x="10" y="2234">-    };</tspan>

<tspan x="10" y="2250">+    }</tspan>

<tspan x="10" y="2266">     // bug-workaround - throw unhandledRejections in node-process</tspan>

<tspan x="10" y="2282">     if (</tspan>

<tspan x="10" y="2298">         typeof process === "object" &amp;&amp; process</tspan>

<tspan x="10" y="2314">@@ -292,6 +289,19 @@</tspan>

<tspan x="10" y="2330">             throw err;</tspan>

<tspan x="10" y="2346">         });</tspan>

<tspan x="10" y="2362">     }</tspan>

<tspan x="10" y="2378">+    // init local</tspan>

<tspan x="10" y="2394">+    local = {};</tspan>

<tspan x="10" y="2410">+    local.local = local;</tspan>

<tspan x="10" y="2426">+    globalThis.globalLocal = local;</tspan>

<tspan x="10" y="2442">+    local.assertJsonEqual = assertJsonEqual;</tspan>

<tspan x="10" y="2458">+    local.assertOrThrow = assertOrThrow;</tspan>

<tspan x="10" y="2474">+    local.coalesce = coalesce;</tspan>

<tspan x="10" y="2490">+    local.identity = identity;</tspan>

<tspan x="10" y="2506">+    local.isBrowser = isBrowser;</tspan>

<tspan x="10" y="2522">+    local.isWebWorker = isWebWorker;</tspan>

<tspan x="10" y="2538">+    local.nop = nop;</tspan>

<tspan x="10" y="2554">+    local.objectAssignDefault = objectAssignDefault;</tspan>

<tspan x="10" y="2570">+    local.onErrorThrow = onErrorThrow;</tspan>

<tspan x="10" y="2586"> }());</tspan>

<tspan x="10" y="2602"> // assets.utility2.header.js - end</tspan>

<tspan x="10" y="2618"> </tspan>

<tspan x="10" y="2634">--- /tmp/npmTestPublished/node_modules/jslint-lite/package.json.autofix.old	2020-08-19 20:45:42.\</tspan>
<tspan x="10" y="2650">297314616 +0000</tspan>

<tspan x="10" y="2666">+++ /tmp/npmTestPublished/node_modules/jslint-lite/package.json	2020-08-19 20:45:42.297314616 +0\</tspan>
<tspan x="10" y="2682">000</tspan>

<tspan x="10" y="2698">@@ -1,72 +1,72 @@</tspan>

<tspan x="10" y="2714"> {</tspan>

<tspan x="10" y="2730">-  "_from": "jslint-lite",</tspan>

<tspan x="10" y="2746">-  "_id": "jslint-lite@2020.7.8",</tspan>

<tspan x="10" y="2762">-  "_inBundle": false,</tspan>

<tspan x="10" y="2778">-  "_integrity": "sha512-+utsO041WUYRjEES8oOrnUdQDuo5iz55FCu8yo6l+p8YZXD7m15BnUXdoSEMP7xlc/Hmcm3\</tspan>
<tspan x="10" y="2794">OvQBTQJf8mqeFyQ==",</tspan>

<tspan x="10" y="2810">-  "_location": "/jslint-lite",</tspan>

<tspan x="10" y="2826">-  "_phantomChildren": {},</tspan>

<tspan x="10" y="2842">-  "_requested": {</tspan>

<tspan x="10" y="2858">-    "type": "tag",</tspan>

<tspan x="10" y="2874">-    "registry": true,</tspan>

<tspan x="10" y="2890">-    "raw": "jslint-lite",</tspan>

<tspan x="10" y="2906">+    "_from": "jslint-lite",</tspan>

<tspan x="10" y="2922">+    "_id": "jslint-lite@2020.7.8",</tspan>

<tspan x="10" y="2938">+    "_inBundle": false,</tspan>

<tspan x="10" y="2954">+    "_integrity": "sha512-+utsO041WUYRjEES8oOrnUdQDuo5iz55FCu8yo6l+p8YZXD7m15BnUXdoSEMP7xlc/Hmc\</tspan>
<tspan x="10" y="2970">m3OvQBTQJf8mqeFyQ==",</tspan>

<tspan x="10" y="2986">+    "_location": "/jslint-lite",</tspan>

<tspan x="10" y="3002">+    "_phantomChildren": {},</tspan>

<tspan x="10" y="3018">+    "_requested": {</tspan>

<tspan x="10" y="3034">+        "escapedName": "jslint-lite",</tspan>

<tspan x="10" y="3050">+        "fetchSpec": "latest",</tspan>

<tspan x="10" y="3066">+        "name": "jslint-lite",</tspan>

<tspan x="10" y="3082">+        "raw": "jslint-lite",</tspan>

<tspan x="10" y="3098">+        "rawSpec": "",</tspan>

<tspan x="10" y="3114">+        "registry": true,</tspan>

<tspan x="10" y="3130">+        "saveSpec": null,</tspan>

<tspan x="10" y="3146">+        "type": "tag"</tspan>

<tspan x="10" y="3162">+    },</tspan>

<tspan x="10" y="3178">+    "_requiredBy_": [</tspan>

<tspan x="10" y="3194">+        "#USER",</tspan>

<tspan x="10" y="3210">+        "/"</tspan>

<tspan x="10" y="3226">+    ],</tspan>

<tspan x="10" y="3242">+    "_resolved": "https://registry.npmjs.org/jslint-lite/-/jslint-lite-2020.7.8.tgz",</tspan>

<tspan x="10" y="3258">+    "_shasum": "e9aa62db08559bc77af8eadd948a15748bdbc5f9",</tspan>

<tspan x="10" y="3274">+    "_spec": "jslint-lite",</tspan>

<tspan x="10" y="3290">+    "_where": "/tmp/npmTestPublished",</tspan>

<tspan x="10" y="3306">+    "author": {</tspan>

<tspan x="10" y="3322">+        "email": "kaizhu256@gmail.com",</tspan>

<tspan x="10" y="3338">+        "name": "kai zhu"</tspan>

<tspan x="10" y="3354">+    },</tspan>

<tspan x="10" y="3370">+    "bin": {</tspan>

<tspan x="10" y="3386">+        "jslint-lite": "lib.jslint.js"</tspan>

<tspan x="10" y="3402">+    },</tspan>

<tspan x="10" y="3418">+    "bugs": {</tspan>

<tspan x="10" y="3434">+        "url": "https://github.com/kaizhu256/node-jslint-lite/issues"</tspan>

<tspan x="10" y="3450">+    },</tspan>

<tspan x="10" y="3466">+    "bundleDependencies": false,</tspan>

<tspan x="10" y="3482">+    "deprecated": false,</tspan>

<tspan x="10" y="3498">+    "description": "this zero-dependency package will provide browser-compatible versions of js\</tspan>
<tspan x="10" y="3514">lint (v2020.7.2) and csslint (v2018.2.25), with working web-demo",</tspan>

<tspan x="10" y="3530">+    "devDependencies": {</tspan>

<tspan x="10" y="3546">+        "utility2": "github:kaizhu256/node-utility2#alpha"</tspan>

<tspan x="10" y="3562">+    },</tspan>

<tspan x="10" y="3578">+    "engines": {</tspan>

<tspan x="10" y="3594">+        "node": "&gt;=12.0"</tspan>

<tspan x="10" y="3610">+    },</tspan>

<tspan x="10" y="3626">+    "fileCount": 16,</tspan>

<tspan x="10" y="3642">+    "homepage": "https://github.com/kaizhu256/node-jslint-lite",</tspan>

<tspan x="10" y="3658">+    "keywords": [</tspan>

<tspan x="10" y="3674">+        "csslint",</tspan>

<tspan x="10" y="3690">+        "jslint"</tspan>

<tspan x="10" y="3706">+    ],</tspan>

<tspan x="10" y="3722">+    "license": "MIT",</tspan>

<tspan x="10" y="3738">+    "main": "lib.jslint.js",</tspan>

<tspan x="10" y="3754">     "name": "jslint-lite",</tspan>

<tspan x="10" y="3770">-    "escapedName": "jslint-lite",</tspan>

<tspan x="10" y="3786">-    "rawSpec": "",</tspan>

<tspan x="10" y="3802">-    "saveSpec": null,</tspan>

<tspan x="10" y="3818">-    "fetchSpec": "latest"</tspan>

<tspan x="10" y="3834">-  },</tspan>

<tspan x="10" y="3850">-  "_requiredBy_": [</tspan>

<tspan x="10" y="3866">-    "#USER",</tspan>

<tspan x="10" y="3882">-    "/"</tspan>

<tspan x="10" y="3898">-  ],</tspan>

<tspan x="10" y="3914">-  "_resolved": "https://registry.npmjs.org/jslint-lite/-/jslint-lite-2020.7.8.tgz",</tspan>

<tspan x="10" y="3930">-  "_shasum": "e9aa62db08559bc77af8eadd948a15748bdbc5f9",</tspan>

<tspan x="10" y="3946">-  "_spec": "jslint-lite",</tspan>

<tspan x="10" y="3962">-  "_where": "/tmp/npmTestPublished",</tspan>

<tspan x="10" y="3978">-  "author": {</tspan>

<tspan x="10" y="3994">-    "name": "kai zhu",</tspan>

<tspan x="10" y="4010">-    "email": "kaizhu256@gmail.com"</tspan>

<tspan x="10" y="4026">-  },</tspan>

<tspan x="10" y="4042">-  "bin": {</tspan>

<tspan x="10" y="4058">-    "jslint-lite": "lib.jslint.js"</tspan>

<tspan x="10" y="4074">-  },</tspan>

<tspan x="10" y="4090">-  "bugs": {</tspan>

<tspan x="10" y="4106">-    "url": "https://github.com/kaizhu256/node-jslint-lite/issues"</tspan>

<tspan x="10" y="4122">-  },</tspan>

<tspan x="10" y="4138">-  "bundleDependencies": false,</tspan>

<tspan x="10" y="4154">-  "deprecated": false,</tspan>

<tspan x="10" y="4170">-  "description": "this zero-dependency package will provide browser-compatible versions of jsli\</tspan>
<tspan x="10" y="4186">nt (v2020.7.2) and csslint (v2018.2.25), with working web-demo",</tspan>

<tspan x="10" y="4202">-  "devDependencies": {</tspan>

<tspan x="10" y="4218">-    "utility2": "github:kaizhu256/node-utility2#alpha"</tspan>

<tspan x="10" y="4234">-  },</tspan>

<tspan x="10" y="4250">-  "engines": {</tspan>

<tspan x="10" y="4266">-    "node": "&gt;=12.0"</tspan>

<tspan x="10" y="4282">-  },</tspan>

<tspan x="10" y="4298">-  "fileCount": 16,</tspan>

<tspan x="10" y="4314">-  "homepage": "https://github.com/kaizhu256/node-jslint-lite",</tspan>

<tspan x="10" y="4330">-  "keywords": [</tspan>

<tspan x="10" y="4346">-    "csslint",</tspan>

<tspan x="10" y="4362">-    "jslint"</tspan>

<tspan x="10" y="4378">-  ],</tspan>

<tspan x="10" y="4394">-  "license": "MIT",</tspan>

<tspan x="10" y="4410">-  "main": "lib.jslint.js",</tspan>

<tspan x="10" y="4426">-  "name": "jslint-lite",</tspan>

<tspan x="10" y="4442">-  "nameAliasPublish": "csslint-lite kslint",</tspan>

<tspan x="10" y="4458">-  "nameLib": "jslint",</tspan>

<tspan x="10" y="4474">-  "nameOriginal": "jslint-lite",</tspan>

<tspan x="10" y="4490">-  "repository": {</tspan>

<tspan x="10" y="4506">-    "type": "git",</tspan>

<tspan x="10" y="4522">-    "url": "git+https://github.com/kaizhu256/node-jslint-lite.git"</tspan>

<tspan x="10" y="4538">-  },</tspan>

<tspan x="10" y="4554">-  "scripts": {</tspan>

<tspan x="10" y="4570">-    "build-ci": "./npm_scripts.sh",</tspan>

<tspan x="10" y="4586">-    "env": "env",</tspan>

<tspan x="10" y="4602">-    "eval": "./npm_scripts.sh",</tspan>

<tspan x="10" y="4618">-    "heroku-postbuild": "./npm_scripts.sh",</tspan>

<tspan x="10" y="4634">-    "postinstall": "./npm_scripts.sh",</tspan>

<tspan x="10" y="4650">-    "start": "./npm_scripts.sh",</tspan>

<tspan x="10" y="4666">-    "test": "./npm_scripts.sh",</tspan>

<tspan x="10" y="4682">-    "utility2": "./npm_scripts.sh"</tspan>

<tspan x="10" y="4698">-  },</tspan>

<tspan x="10" y="4714">-  "version": "2020.7.8"</tspan>

<tspan x="10" y="4730">+    "nameAliasPublish": "csslint-lite kslint",</tspan>

<tspan x="10" y="4746">+    "nameLib": "jslint",</tspan>

<tspan x="10" y="4762">+    "nameOriginal": "jslint-lite",</tspan>

<tspan x="10" y="4778">+    "repository": {</tspan>

<tspan x="10" y="4794">+        "type": "git",</tspan>

<tspan x="10" y="4810">+        "url": "git+https://github.com/kaizhu256/node-jslint-lite.git"</tspan>

<tspan x="10" y="4826">+    },</tspan>

<tspan x="10" y="4842">+    "scripts": {</tspan>

<tspan x="10" y="4858">+        "build-ci": "./npm_scripts.sh",</tspan>

<tspan x="10" y="4874">+        "env": "env",</tspan>

<tspan x="10" y="4890">+        "eval": "./npm_scripts.sh",</tspan>

<tspan x="10" y="4906">+        "heroku-postbuild": "./npm_scripts.sh",</tspan>

<tspan x="10" y="4922">+        "postinstall": "./npm_scripts.sh",</tspan>

<tspan x="10" y="4938">+        "start": "./npm_scripts.sh",</tspan>

<tspan x="10" y="4954">+        "test": "./npm_scripts.sh",</tspan>

<tspan x="10" y="4970">+        "utility2": "./npm_scripts.sh"</tspan>

<tspan x="10" y="4986">+    },</tspan>

<tspan x="10" y="5002">+    "version": "2020.7.8"</tspan>

<tspan x="10" y="5018"> }</tspan>

<tspan x="10" y="5034">--- /tmp/npmTestPublished/node_modules/jslint-lite/test.js.autofix.old	2020-08-19 20:45:42.54931\</tspan>
<tspan x="10" y="5050">4616 +0000</tspan>

<tspan x="10" y="5066">+++ /tmp/npmTestPublished/node_modules/jslint-lite/test.js	2020-08-19 20:45:42.549314616 +0000</tspan>

<tspan x="10" y="5082">@@ -5,10 +5,12 @@</tspan>

<tspan x="10" y="5098"> // run shared js-env code - init-local</tspan>

<tspan x="10" y="5114"> (function () {</tspan>

<tspan x="10" y="5130">     "use strict";</tspan>

<tspan x="10" y="5146">-    let consoleError;</tspan>

<tspan x="10" y="5162">+    let isBrowser;</tspan>

<tspan x="10" y="5178">+    let isWebWorker;</tspan>

<tspan x="10" y="5194">     let local;</tspan>

<tspan x="10" y="5210">     // init debugInline</tspan>

<tspan x="10" y="5226">     if (!globalThis.debugInline) {</tspan>

<tspan x="10" y="5242">+        let consoleError;</tspan>

<tspan x="10" y="5258">         consoleError = console.error;</tspan>

<tspan x="10" y="5274">         globalThis.debugInline = function (...argList) {</tspan>

<tspan x="10" y="5290">         /*</tspan>

<tspan x="10" y="5306">@@ -21,27 +23,22 @@</tspan>

<tspan x="10" y="5322">             return argList[0];</tspan>

<tspan x="10" y="5338">         };</tspan>

<tspan x="10" y="5354">     }</tspan>

<tspan x="10" y="5370">-    // init local</tspan>

<tspan x="10" y="5386">-    local = {};</tspan>

<tspan x="10" y="5402">-    local.local = local;</tspan>

<tspan x="10" y="5418">-    globalThis.globalLocal = local;</tspan>

<tspan x="10" y="5434">     // init isBrowser</tspan>

<tspan x="10" y="5450">-    local.isBrowser = (</tspan>

<tspan x="10" y="5466">+    isBrowser = (</tspan>

<tspan x="10" y="5482">         typeof globalThis.XMLHttpRequest === "function"</tspan>

<tspan x="10" y="5498">         &amp;&amp; globalThis.navigator</tspan>

<tspan x="10" y="5514">         &amp;&amp; typeof globalThis.navigator.userAgent === "string"</tspan>

<tspan x="10" y="5530">     );</tspan>

<tspan x="10" y="5546">     // init isWebWorker</tspan>

<tspan x="10" y="5562">-    local.isWebWorker = (</tspan>

<tspan x="10" y="5578">-        local.isBrowser &amp;&amp; typeof globalThis.importScripts === "function"</tspan>

<tspan x="10" y="5594">+    isWebWorker = (</tspan>

<tspan x="10" y="5610">+        isBrowser &amp;&amp; typeof globalThis.importScripts === "function"</tspan>

<tspan x="10" y="5626">     );</tspan>

<tspan x="10" y="5642">     // init function</tspan>

<tspan x="10" y="5658">-    local.assertJsonEqual = function (aa, bb) {</tspan>

<tspan x="10" y="5674">+    function assertJsonEqual(aa, bb) {</tspan>

<tspan x="10" y="5690">     /*</tspan>

<tspan x="10" y="5706">      * this function will assert JSON.stringify(&lt;aa&gt;) === JSON.stringify(&lt;bb&gt;)</tspan>

<tspan x="10" y="5722">      */</tspan>

<tspan x="10" y="5738">-        let objectDeepCopyWithKeysSorted;</tspan>

<tspan x="10" y="5754">-        objectDeepCopyWithKeysSorted = function (obj) {</tspan>

<tspan x="10" y="5770">+        function objectDeepCopyWithKeysSorted(obj) {</tspan>

<tspan x="10" y="5786">         /*</tspan>

<tspan x="10" y="5802">          * this function will recursively deep-copy &lt;obj&gt; with keys sorted</tspan>

<tspan x="10" y="5818">          */</tspan>

<tspan x="10" y="5834">@@ -59,14 +56,14 @@</tspan>

<tspan x="10" y="5850">                 sorted[key] = objectDeepCopyWithKeysSorted(obj[key]);</tspan>

<tspan x="10" y="5866">             });</tspan>

<tspan x="10" y="5882">             return sorted;</tspan>

<tspan x="10" y="5898">-        };</tspan>

<tspan x="10" y="5914">+        }</tspan>

<tspan x="10" y="5930">         aa = JSON.stringify(objectDeepCopyWithKeysSorted(aa));</tspan>

<tspan x="10" y="5946">         bb = JSON.stringify(objectDeepCopyWithKeysSorted(bb));</tspan>

<tspan x="10" y="5962">         if (aa !== bb) {</tspan>

<tspan x="10" y="5978">             throw new Error(JSON.stringify(aa) + " !== " + JSON.stringify(bb));</tspan>

<tspan x="10" y="5994">         }</tspan>

<tspan x="10" y="6010">-    };</tspan>

<tspan x="10" y="6026">-    local.assertOrThrow = function (passed, msg) {</tspan>

<tspan x="10" y="6042">+    }</tspan>

<tspan x="10" y="6058">+    function assertOrThrow(passed, msg) {</tspan>

<tspan x="10" y="6074">     /*</tspan>

<tspan x="10" y="6090">      * this function will throw &lt;msg&gt; if &lt;passed&gt; is falsy</tspan>

<tspan x="10" y="6106">      */</tspan>

<tspan x="10" y="6122">@@ -89,8 +86,8 @@</tspan>

<tspan x="10" y="6138">                 : JSON.stringify(msg, undefined, 4)</tspan>

<tspan x="10" y="6154">             )</tspan>

<tspan x="10" y="6170">         );</tspan>

<tspan x="10" y="6186">-    };</tspan>

<tspan x="10" y="6202">-    local.coalesce = function (...argList) {</tspan>

<tspan x="10" y="6218">+    }</tspan>

<tspan x="10" y="6234">+    function coalesce(...argList) {</tspan>

<tspan x="10" y="6250">     /*</tspan>

<tspan x="10" y="6266">      * this function will coalesce null, undefined, or "" in &lt;argList&gt;</tspan>

<tspan x="10" y="6282">      */</tspan>

<tspan x="10" y="6298">@@ -105,20 +102,20 @@</tspan>

<tspan x="10" y="6314">             ii += 1;</tspan>

<tspan x="10" y="6330">         }</tspan>

<tspan x="10" y="6346">         return arg;</tspan>

<tspan x="10" y="6362">-    };</tspan>

<tspan x="10" y="6378">-    local.identity = function (val) {</tspan>

<tspan x="10" y="6394">+    }</tspan>

<tspan x="10" y="6410">+    function identity(val) {</tspan>

<tspan x="10" y="6426">     /*</tspan>

<tspan x="10" y="6442">      * this function will return &lt;val&gt;</tspan>

<tspan x="10" y="6458">      */</tspan>

<tspan x="10" y="6474">         return val;</tspan>

<tspan x="10" y="6490">-    };</tspan>

<tspan x="10" y="6506">-    local.nop = function () {</tspan>

<tspan x="10" y="6522">+    }</tspan>

<tspan x="10" y="6538">+    function nop() {</tspan>

<tspan x="10" y="6554">     /*</tspan>

<tspan x="10" y="6570">      * this function will do nothing</tspan>

<tspan x="10" y="6586">      */</tspan>

<tspan x="10" y="6602">         return;</tspan>

<tspan x="10" y="6618">-    };</tspan>

<tspan x="10" y="6634">-    local.objectAssignDefault = function (tgt = {}, src = {}, depth = 0) {</tspan>

<tspan x="10" y="6650">+    }</tspan>

<tspan x="10" y="6666">+    function objectAssignDefault(tgt = {}, src = {}, depth = 0) {</tspan>

<tspan x="10" y="6682">     /*</tspan>

<tspan x="10" y="6698">      * this function will if items from &lt;tgt&gt; are null, undefined, or "",</tspan>

<tspan x="10" y="6714">      * then overwrite them with items from &lt;src&gt;</tspan>

<tspan x="10" y="6730">@@ -145,15 +142,15 @@</tspan>

<tspan x="10" y="6746">         };</tspan>

<tspan x="10" y="6762">         recurse(tgt, src, depth | 0);</tspan>

<tspan x="10" y="6778">         return tgt;</tspan>

<tspan x="10" y="6794">-    };</tspan>

<tspan x="10" y="6810">-    local.onErrorThrow = function (err) {</tspan>

<tspan x="10" y="6826">+    }</tspan>

<tspan x="10" y="6842">+    function onErrorThrow(err) {</tspan>

<tspan x="10" y="6858">     /*</tspan>

<tspan x="10" y="6874">      * this function will throw &lt;err&gt; if exists</tspan>

<tspan x="10" y="6890">      */</tspan>

<tspan x="10" y="6906">         if (err) {</tspan>

<tspan x="10" y="6922">             throw err;</tspan>

<tspan x="10" y="6938">         }</tspan>

<tspan x="10" y="6954">-    };</tspan>

<tspan x="10" y="6970">+    }</tspan>

<tspan x="10" y="6986">     // bug-workaround - throw unhandledRejections in node-process</tspan>

<tspan x="10" y="7002">     if (</tspan>

<tspan x="10" y="7018">         typeof process === "object" &amp;&amp; process</tspan>

<tspan x="10" y="7034">@@ -165,6 +162,19 @@</tspan>

<tspan x="10" y="7050">             throw err;</tspan>

<tspan x="10" y="7066">         });</tspan>

<tspan x="10" y="7082">     }</tspan>

<tspan x="10" y="7098">+    // init local</tspan>

<tspan x="10" y="7114">+    local = {};</tspan>

<tspan x="10" y="7130">+    local.local = local;</tspan>

<tspan x="10" y="7146">+    globalThis.globalLocal = local;</tspan>

<tspan x="10" y="7162">+    local.assertJsonEqual = assertJsonEqual;</tspan>

<tspan x="10" y="7178">+    local.assertOrThrow = assertOrThrow;</tspan>

<tspan x="10" y="7194">+    local.coalesce = coalesce;</tspan>

<tspan x="10" y="7210">+    local.identity = identity;</tspan>

<tspan x="10" y="7226">+    local.isBrowser = isBrowser;</tspan>

<tspan x="10" y="7242">+    local.isWebWorker = isWebWorker;</tspan>

<tspan x="10" y="7258">+    local.nop = nop;</tspan>

<tspan x="10" y="7274">+    local.objectAssignDefault = objectAssignDefault;</tspan>

<tspan x="10" y="7290">+    local.onErrorThrow = onErrorThrow;</tspan>

<tspan x="10" y="7306"> }());</tspan>

<tspan x="10" y="7322"> // assets.utility2.header.js - end</tspan>

<tspan x="10" y="7338"> </tspan>

<tspan x="10" y="7354">testRunDefault - 2411 ms - [node test-case 6 of 9 passed] - testCase_buildApidoc_default</tspan>

<tspan x="10" y="7370">--- /tmp/npmTestPublished/node_modules/jslint-lite/lib.jslint.js.autofix.old	2020-08-19 20:45:43\</tspan>
<tspan x="10" y="7386">.117314616 +0000</tspan>

<tspan x="10" y="7402">+++ /tmp/npmTestPublished/node_modules/jslint-lite/lib.jslint.js	2020-08-19 20:45:43.113314616 +\</tspan>
<tspan x="10" y="7418">0000</tspan>

<tspan x="10" y="7434">@@ -14,10 +14,12 @@</tspan>

<tspan x="10" y="7450"> // run shared js-env code - init-local</tspan>

<tspan x="10" y="7466"> (function () {</tspan>

<tspan x="10" y="7482">     "use strict";</tspan>

<tspan x="10" y="7498">-    let consoleError;</tspan>

<tspan x="10" y="7514">+    let isBrowser;</tspan>

<tspan x="10" y="7530">+    let isWebWorker;</tspan>

<tspan x="10" y="7546">     let local;</tspan>

<tspan x="10" y="7562">     // init debugInline</tspan>

<tspan x="10" y="7578">     if (!globalThis.debugInline) {</tspan>

<tspan x="10" y="7594">+        let consoleError;</tspan>

<tspan x="10" y="7610">         consoleError = console.error;</tspan>

<tspan x="10" y="7626">         globalThis.debugInline = function (...argList) {</tspan>

<tspan x="10" y="7642">         /*</tspan>

<tspan x="10" y="7658">@@ -30,27 +32,22 @@</tspan>

<tspan x="10" y="7674">             return argList[0];</tspan>

<tspan x="10" y="7690">         };</tspan>

<tspan x="10" y="7706">     }</tspan>

<tspan x="10" y="7722">-    // init local</tspan>

<tspan x="10" y="7738">-    local = {};</tspan>

<tspan x="10" y="7754">-    local.local = local;</tspan>

<tspan x="10" y="7770">-    globalThis.globalLocal = local;</tspan>

<tspan x="10" y="7786">     // init isBrowser</tspan>

<tspan x="10" y="7802">-    local.isBrowser = (</tspan>

<tspan x="10" y="7818">+    isBrowser = (</tspan>

<tspan x="10" y="7834">         typeof globalThis.XMLHttpRequest === "function"</tspan>

<tspan x="10" y="7850">         &amp;&amp; globalThis.navigator</tspan>

<tspan x="10" y="7866">         &amp;&amp; typeof globalThis.navigator.userAgent === "string"</tspan>

<tspan x="10" y="7882">     );</tspan>

<tspan x="10" y="7898">     // init isWebWorker</tspan>

<tspan x="10" y="7914">-    local.isWebWorker = (</tspan>

<tspan x="10" y="7930">-        local.isBrowser &amp;&amp; typeof globalThis.importScripts === "function"</tspan>

<tspan x="10" y="7946">+    isWebWorker = (</tspan>

<tspan x="10" y="7962">+        isBrowser &amp;&amp; typeof globalThis.importScripts === "function"</tspan>

<tspan x="10" y="7978">     );</tspan>

<tspan x="10" y="7994">     // init function</tspan>

<tspan x="10" y="8010">-    local.assertJsonEqual = function (aa, bb) {</tspan>

<tspan x="10" y="8026">+    function assertJsonEqual(aa, bb) {</tspan>

<tspan x="10" y="8042">     /*</tspan>

<tspan x="10" y="8058">      * this function will assert JSON.stringify(&lt;aa&gt;) === JSON.stringify(&lt;bb&gt;)</tspan>

<tspan x="10" y="8074">      */</tspan>

<tspan x="10" y="8090">-        let objectDeepCopyWithKeysSorted;</tspan>

<tspan x="10" y="8106">-        objectDeepCopyWithKeysSorted = function (obj) {</tspan>

<tspan x="10" y="8122">+        function objectDeepCopyWithKeysSorted(obj) {</tspan>

<tspan x="10" y="8138">         /*</tspan>

<tspan x="10" y="8154">          * this function will recursively deep-copy &lt;obj&gt; with keys sorted</tspan>

<tspan x="10" y="8170">          */</tspan>

<tspan x="10" y="8186">@@ -68,14 +65,14 @@</tspan>

<tspan x="10" y="8202">                 sorted[key] = objectDeepCopyWithKeysSorted(obj[key]);</tspan>

<tspan x="10" y="8218">             });</tspan>

<tspan x="10" y="8234">             return sorted;</tspan>

<tspan x="10" y="8250">-        };</tspan>

<tspan x="10" y="8266">+        }</tspan>

<tspan x="10" y="8282">         aa = JSON.stringify(objectDeepCopyWithKeysSorted(aa));</tspan>

<tspan x="10" y="8298">         bb = JSON.stringify(objectDeepCopyWithKeysSorted(bb));</tspan>

<tspan x="10" y="8314">         if (aa !== bb) {</tspan>

<tspan x="10" y="8330">             throw new Error(JSON.stringify(aa) + " !== " + JSON.stringify(bb));</tspan>

<tspan x="10" y="8346">         }</tspan>

<tspan x="10" y="8362">-    };</tspan>

<tspan x="10" y="8378">-    local.assertOrThrow = function (passed, msg) {</tspan>

<tspan x="10" y="8394">+    }</tspan>

<tspan x="10" y="8410">+    function assertOrThrow(passed, msg) {</tspan>

<tspan x="10" y="8426">     /*</tspan>

<tspan x="10" y="8442">      * this function will throw &lt;msg&gt; if &lt;passed&gt; is falsy</tspan>

<tspan x="10" y="8458">      */</tspan>

<tspan x="10" y="8474">@@ -98,8 +95,8 @@</tspan>

<tspan x="10" y="8490">                 : JSON.stringify(msg, undefined, 4)</tspan>

<tspan x="10" y="8506">             )</tspan>

<tspan x="10" y="8522">         );</tspan>

<tspan x="10" y="8538">-    };</tspan>

<tspan x="10" y="8554">-    local.coalesce = function (...argList) {</tspan>

<tspan x="10" y="8570">+    }</tspan>

<tspan x="10" y="8586">+    function coalesce(...argList) {</tspan>

<tspan x="10" y="8602">     /*</tspan>

<tspan x="10" y="8618">      * this function will coalesce null, undefined, or "" in &lt;argList&gt;</tspan>

<tspan x="10" y="8634">      */</tspan>

<tspan x="10" y="8650">@@ -114,20 +111,20 @@</tspan>

<tspan x="10" y="8666">             ii += 1;</tspan>

<tspan x="10" y="8682">         }</tspan>

<tspan x="10" y="8698">         return arg;</tspan>

<tspan x="10" y="8714">-    };</tspan>

<tspan x="10" y="8730">-    local.identity = function (val) {</tspan>

<tspan x="10" y="8746">+    }</tspan>

<tspan x="10" y="8762">+    function identity(val) {</tspan>

<tspan x="10" y="8778">     /*</tspan>

<tspan x="10" y="8794">      * this function will return &lt;val&gt;</tspan>

<tspan x="10" y="8810">      */</tspan>

<tspan x="10" y="8826">         return val;</tspan>

<tspan x="10" y="8842">-    };</tspan>

<tspan x="10" y="8858">-    local.nop = function () {</tspan>

<tspan x="10" y="8874">+    }</tspan>

<tspan x="10" y="8890">+    function nop() {</tspan>

<tspan x="10" y="8906">     /*</tspan>

<tspan x="10" y="8922">      * this function will do nothing</tspan>

<tspan x="10" y="8938">      */</tspan>

<tspan x="10" y="8954">         return;</tspan>

<tspan x="10" y="8970">-    };</tspan>

<tspan x="10" y="8986">-    local.objectAssignDefault = function (tgt = {}, src = {}, depth = 0) {</tspan>

<tspan x="10" y="9002">+    }</tspan>

<tspan x="10" y="9018">+    function objectAssignDefault(tgt = {}, src = {}, depth = 0) {</tspan>

<tspan x="10" y="9034">     /*</tspan>

<tspan x="10" y="9050">      * this function will if items from &lt;tgt&gt; are null, undefined, or "",</tspan>

<tspan x="10" y="9066">      * then overwrite them with items from &lt;src&gt;</tspan>

<tspan x="10" y="9082">@@ -154,15 +151,15 @@</tspan>

<tspan x="10" y="9098">         };</tspan>

<tspan x="10" y="9114">         recurse(tgt, src, depth | 0);</tspan>

<tspan x="10" y="9130">         return tgt;</tspan>

<tspan x="10" y="9146">-    };</tspan>

<tspan x="10" y="9162">-    local.onErrorThrow = function (err) {</tspan>

<tspan x="10" y="9178">+    }</tspan>

<tspan x="10" y="9194">+    function onErrorThrow(err) {</tspan>

<tspan x="10" y="9210">     /*</tspan>

<tspan x="10" y="9226">      * this function will throw &lt;err&gt; if exists</tspan>

<tspan x="10" y="9242">      */</tspan>

<tspan x="10" y="9258">         if (err) {</tspan>

<tspan x="10" y="9274">             throw err;</tspan>

<tspan x="10" y="9290">         }</tspan>

<tspan x="10" y="9306">-    };</tspan>

<tspan x="10" y="9322">+    }</tspan>

<tspan x="10" y="9338">     // bug-workaround - throw unhandledRejections in node-process</tspan>

<tspan x="10" y="9354">     if (</tspan>

<tspan x="10" y="9370">         typeof process === "object" &amp;&amp; process</tspan>

<tspan x="10" y="9386">@@ -174,6 +171,19 @@</tspan>

<tspan x="10" y="9402">             throw err;</tspan>

<tspan x="10" y="9418">         });</tspan>

<tspan x="10" y="9434">     }</tspan>

<tspan x="10" y="9450">+    // init local</tspan>

<tspan x="10" y="9466">+    local = {};</tspan>

<tspan x="10" y="9482">+    local.local = local;</tspan>

<tspan x="10" y="9498">+    globalThis.globalLocal = local;</tspan>

<tspan x="10" y="9514">+    local.assertJsonEqual = assertJsonEqual;</tspan>

<tspan x="10" y="9530">+    local.assertOrThrow = assertOrThrow;</tspan>

<tspan x="10" y="9546">+    local.coalesce = coalesce;</tspan>

<tspan x="10" y="9562">+    local.identity = identity;</tspan>

<tspan x="10" y="9578">+    local.isBrowser = isBrowser;</tspan>

<tspan x="10" y="9594">+    local.isWebWorker = isWebWorker;</tspan>

<tspan x="10" y="9610">+    local.nop = nop;</tspan>

<tspan x="10" y="9626">+    local.objectAssignDefault = objectAssignDefault;</tspan>

<tspan x="10" y="9642">+    local.onErrorThrow = onErrorThrow;</tspan>

<tspan x="10" y="9658"> }());</tspan>

<tspan x="10" y="9674"> // assets.utility2.header.js - end</tspan>

<tspan x="10" y="9690"> </tspan>

<tspan x="10" y="9706">@@ -366,8 +376,7 @@</tspan>

<tspan x="10" y="9722"> /*</tspan>

<tspan x="10" y="9738">  * this function will recursively deep-copy &lt;obj&gt; with keys sorted</tspan>

<tspan x="10" y="9754">  */</tspan>

<tspan x="10" y="9770">-    let objectDeepCopyWithKeysSorted;</tspan>

<tspan x="10" y="9786">-    objectDeepCopyWithKeysSorted = function (obj) {</tspan>

<tspan x="10" y="9802">+    function objectDeepCopyWithKeysSorted(obj) {</tspan>

<tspan x="10" y="9818">     /*</tspan>

<tspan x="10" y="9834">      * this function will recursively deep-copy &lt;obj&gt; with keys sorted</tspan>

<tspan x="10" y="9850">      */</tspan>

<tspan x="10" y="9866">@@ -385,7 +394,7 @@</tspan>

<tspan x="10" y="9882">             sorted[key] = objectDeepCopyWithKeysSorted(obj[key]);</tspan>

<tspan x="10" y="9898">         });</tspan>

<tspan x="10" y="9914">         return sorted;</tspan>

<tspan x="10" y="9930">-    };</tspan>

<tspan x="10" y="9946">+    }</tspan>

<tspan x="10" y="9962">     return objectDeepCopyWithKeysSorted(obj);</tspan>

<tspan x="10" y="9978"> };</tspan>

<tspan x="10" y="9994"> }());</tspan>

<tspan x="10" y="10010">testRunDefault - 2889 ms - [node test-case 7 of 9 passed] - testCase_jslintAndPrintDir_coverage</tspan>

<tspan x="10" y="10026"></tspan>

<tspan x="10" y="10042">DevTools listening on ws://127.0.0.1:43731/devtools/browser/7634c54d-2e34-4dc0-9133-16b48d1f616a</tspan>

<tspan x="10" y="10058">[0819/204541.996358:ERROR:command_buffer_proxy_impl.cc(122)] ContextResult::kTransientFailure: F\</tspan>
<tspan x="10" y="10074">ailed to send GpuChannelMsg_CreateCommandBuffer.</tspan>

<tspan x="10" y="10090">[0819/204541.996356:WARNING:ipc_message_attachment_set.cc(49)] MessageAttachmentSet destroyed wi\</tspan>
<tspan x="10" y="10106">th unconsumed attachments: 0/1</tspan>

<tspan x="10" y="10122">[0819/204541.996969:WARNING:ipc_message_attachment_set.cc(49)] MessageAttachmentSet destroyed wi\</tspan>
<tspan x="10" y="10138">th unconsumed attachments: 0/1</tspan>

<tspan x="10" y="10154">jslint - 6ms - /tmp/npmTestPublished/node_modules/jslint-lite/.tmp/build/app/assets.example.html</tspan>

<tspan x="10" y="10170">jslint - 23ms - /tmp/npmTestPublished/node_modules/jslint-lite/.tmp/build/app/assets.example.js</tspan>

<tspan x="10" y="10186">jslint - 23ms - /tmp/npmTestPublished/node_modules/jslint-lite/.tmp/build/app/assets.jslint.css</tspan>

<tspan x="10" y="10202">jslint - 25ms - /tmp/npmTestPublished/node_modules/jslint-lite/.tmp/build/app/assets.jslint.html</tspan>

<tspan x="10" y="10218">jslint - 25ms - /tmp/npmTestPublished/node_modules/jslint-lite/.tmp/build/app/assets.test.js</tspan>

<tspan x="10" y="10234">jslint - 30ms - /tmp/npmTestPublished/node_modules/jslint-lite/.tmp/build/app/assets.utility2.ht\</tspan>
<tspan x="10" y="10250">ml</tspan>

<tspan x="10" y="10266">jslint - 31ms - /tmp/npmTestPublished/node_modules/jslint-lite/.tmp/build/app/index.html</tspan>

<tspan x="10" y="10282">jslint - 32ms - /tmp/npmTestPublished/node_modules/jslint-lite/.tmp/build/app/utility2.state.ini\</tspan>
<tspan x="10" y="10298">t.js</tspan>

<tspan x="10" y="10314">jslint - 266ms - /tmp/npmTestPublished/node_modules/jslint-lite/.tmp/build/app/assets.utility2.l\</tspan>
<tspan x="10" y="10330">ib.jslint.js</tspan>

<tspan x="10" y="10346">jslint - 308ms - /tmp/npmTestPublished/node_modules/jslint-lite/.tmp/build/app/assets.jslint.js</tspan>

<tspan x="10" y="10362">&gt; http-server listening on port 39764</tspan>

<tspan x="10" y="10378">[0819/204544.387904:INFO:CONSOLE(9)] "jslint inputCsslint1.css</tspan>

<tspan x="10" y="10394">  1 warning - zero-units - Values of 0 shouldn't have units specified.</tspan>

<tspan x="10" y="10410">    You don't need to specify units when a value is 0. // line 6, column 13</tspan>

<tspan x="10" y="10426">    margin: 0px;", source: http://127.0.0.1:35604/assets.example.js (9)</tspan>

<tspan x="10" y="10442">[0819/204544.408196:INFO:CONSOLE(9)] "jslint inputJslint1.js</tspan>

<tspan x="10" y="10458">  1 Undeclared 'console'. // line 5, column 2</tspan>

<tspan x="10" y="10474">    console.log(message);</tspan>

<tspan x="10" y="10490">  2 Undeclared 'console'. // line 6, column 2</tspan>

<tspan x="10" y="10506">    console.log(null);", source: http://127.0.0.1:35604/assets.example.js (9)</tspan>

<tspan x="10" y="10522">[0819/204544.458616:INFO:CONSOLE(9)] "testRunDefault - 32 ms - [browser test-case 1 of 6 passed]\</tspan>
<tspan x="10" y="10538"> - testCase_jslint0_coverage", source: http://127.0.0.1:35604/assets.example.js (9)</tspan>

<tspan x="10" y="10554">[0819/204544.542919:INFO:CONSOLE(9)] "testRunDefault - 117 ms - [browser test-case 2 of 6 passed\</tspan>
<tspan x="10" y="10570">] - testCase_jslint0_err", source: http://127.0.0.1:35604/assets.example.js (9)</tspan>

<tspan x="10" y="10586">[0819/204544.547797:INFO:CONSOLE(9)] "testRunDefault - 122 ms - [browser test-case 3 of 6 passed\</tspan>
<tspan x="10" y="10602">] - testCase_jslintAndPrintDir_coverage", source: http://127.0.0.1:35604/assets.example.js (9)</tspan>

<tspan x="10" y="10618">[0819/204544.555167:INFO:CONSOLE(9)] "testRunDefault - 129 ms - [browser test-case 4 of 6 passed\</tspan>
<tspan x="10" y="10634">] - testCase_jslintAndPrint_coverage", source: http://127.0.0.1:35604/assets.example.js (9)</tspan>

<tspan x="10" y="10650">[0819/204544.583614:INFO:CONSOLE(9)] "testRunDefault - 157 ms - [browser test-case 5 of 6 passed\</tspan>
<tspan x="10" y="10666">] - testCase_jslintAutofix_coverage", source: http://127.0.0.1:35604/assets.example.js (9)</tspan>

<tspan x="10" y="10682">[0819/204544.589429:INFO:CONSOLE(9)] "testRunDefault - 163 ms - [browser test-case 6 of 6 passed\</tspan>
<tspan x="10" y="10698">] - testCase_nop_default", source: http://127.0.0.1:35604/assets.example.js (9)</tspan>

<tspan x="10" y="10714">[0819/204544.605949:INFO:CONSOLE(9)] "domOnEventWindowOnloadTimeElapsed = 1046", source: http://\</tspan>
<tspan x="10" y="10730">127.0.0.1:35604/assets.example.js (9)</tspan>

<tspan x="10" y="10746">testRunDefault - 4646 ms - [node test-case 8 of 9 passed] - testCase_webpage_default</tspan>

<tspan x="10" y="10762">testRunDefault - 6412 ms - testCase pending - testCase_buildApp_default ...</tspan>

<tspan x="10" y="10778">testRunDefault - 7706 ms - [node test-case 9 of 9 passed] - testCase_buildApp_default</tspan>

<tspan x="10" y="10794">--------------|---------|---------|---------|---------|</tspan>

<tspan x="10" y="10810">File          | % Stmts | % Brchs | % Funcs | % Lines |</tspan>

<tspan x="10" y="10826">--------------|---------|---------|---------|---------|</tspan>

<tspan x="10" y="10842">All files     |    97.2 |    94.7 |   99.05 |   97.19 |</tspan>

<tspan x="10" y="10858">example.js    |     100 |     100 |     100 |     100 |</tspan>

<tspan x="10" y="10874">lib.jslint.js |   97.09 |   94.47 |   98.99 |   97.08 |</tspan>

<tspan x="10" y="10890">test.js       |     100 |     100 |     100 |     100 |</tspan>

<tspan x="10" y="10906">--------------|---------|---------|---------|---------|</tspan>

<tspan x="10" y="10922"></tspan>

<tspan x="10" y="10938">fsWriteFileWithMkdirpSync - /tmp/npmTestPublished/node_modules/jslint-lite/.tmp/build/coverage/c\</tspan>
<tspan x="10" y="10954">overage.txt</tspan>

<tspan x="10" y="10970">fsWriteFileWithMkdirpSync - /tmp/npmTestPublished/node_modules/jslint-lite/.tmp/build/coverage/i\</tspan>
<tspan x="10" y="10986">ndex.html</tspan>

<tspan x="10" y="11002">fsWriteFileWithMkdirpSync - /tmp/npmTestPublished/node_modules/jslint-lite/.tmp/build/coverage/e\</tspan>
<tspan x="10" y="11018">xample.js.html</tspan>

<tspan x="10" y="11034">fsWriteFileWithMkdirpSync - /tmp/npmTestPublished/node_modules/jslint-lite/.tmp/build/coverage/l\</tspan>
<tspan x="10" y="11050">ib.jslint.js.html</tspan>

<tspan x="10" y="11066">fsWriteFileWithMkdirpSync - /tmp/npmTestPublished/node_modules/jslint-lite/.tmp/build/coverage/t\</tspan>
<tspan x="10" y="11082">est.js.html</tspan>

<tspan x="10" y="11098">fsWriteFileWithMkdirpSync - /tmp/npmTestPublished/node_modules/jslint-lite/.tmp/build/coverage/c\</tspan>
<tspan x="10" y="11114">overage.all.html</tspan>

<tspan x="10" y="11130">fsWriteFileWithMkdirpSync - /tmp/npmTestPublished/node_modules/jslint-lite/.tmp/build/coverage/c\</tspan>
<tspan x="10" y="11146">overage.json</tspan>

<tspan x="10" y="11162">fsWriteFileWithMkdirpSync - /tmp/npmTestPublished/node_modules/jslint-lite/.tmp/build/coverage/c\</tspan>
<tspan x="10" y="11178">overage.include.json</tspan>

<tspan x="10" y="11194">fsWriteFileWithMkdirpSync - /tmp/npmTestPublished/node_modules/jslint-lite/.tmp/build/coverage/c\</tspan>
<tspan x="10" y="11210">overage.badge.svg</tspan>

<tspan x="10" y="11226">istanbul - created coverage file /tmp/npmTestPublished/node_modules/jslint-lite/.tmp/build/cover\</tspan>
<tspan x="10" y="11242">age/index.html</tspan>

<tspan x="10" y="11258"></tspan>

<tspan x="10" y="11274">-------------------------------------------------------</tspan>

<tspan x="10" y="11290">| test-report - npmTestPublished - browser - / - Mozilla/5.0 (X11; Linux x86_64) AppleWebKit/537\</tspan>
<tspan x="10" y="11306">.36 (KHTML, like Gecko) HeadlessChrome/84.0.4147.135 Safari/537.36 - 2020-08-19T20:45:43.711Z</tspan>

<tspan x="10" y="11322">|     169 ms            0 failed        6 passed      |</tspan>

<tspan x="10" y="11338">-------------------------------------------------------</tspan>

<tspan x="10" y="11354">| test-report - npmTestPublished - node - linux v14.8.0 - 2020-08-19T20:45:38.209Z</tspan>

<tspan x="10" y="11370">|    7707 ms            0 failed        9 passed      |</tspan>

<tspan x="10" y="11386">-------------------------------------------------------</tspan>

<tspan x="10" y="11402"></tspan>

<tspan x="10" y="11418">fsWriteFileWithMkdirpSync - /tmp/npmTestPublished/node_modules/jslint-lite/.tmp/build/test-repor\</tspan>
<tspan x="10" y="11434">t.html</tspan>

<tspan x="10" y="11450">fsWriteFileWithMkdirpSync - /tmp/npmTestPublished/node_modules/jslint-lite/.tmp/build/build.badg\</tspan>
<tspan x="10" y="11466">e.svg</tspan>

<tspan x="10" y="11482">fsWriteFileWithMkdirpSync - /tmp/npmTestPublished/node_modules/jslint-lite/.tmp/build/test-repor\</tspan>
<tspan x="10" y="11498">t.badge.svg</tspan>

<tspan x="10" y="11514"></tspan>

<tspan x="10" y="11530">npmTestPublished - 0 failed tests</tspan>

<tspan x="10" y="11546"></tspan>

<tspan x="10" y="11562"></tspan>

<tspan x="10" y="11578">\x1b[35m[MODE_BUILD=npmTestPublished]\x1b[0m - 2020-08-19T20:45:48.310Z - EXIT_CODE - 0</tspan>

</text>
</svg>
